<svg width="122" height="96" viewBox="0 0 122 96" fill="none" xmlns="http://www.w3.org/2000/svg">
<g filter="url(#filter0_d_5138_62901)">
<rect x="4" width="114" height="88" fill="transparent"/>
<path fill-rule="evenodd" clip-rule="evenodd" d="M13.1296 48.3553C12.5862 50.2836 13.6267 51.9505 15.7912 51.9505C18.3974 51.9505 22.2567 49.7642 26.4199 45.672L27.5805 44.385C29.6804 41.6467 29.953 38.4362 26.3712 38.4362C21.4593 38.4362 14.2513 44.3587 13.1296 48.3553ZM15.8399 32.4821C20.1754 28.8439 27.0786 25.0024 33.3474 25C38.8946 25 40.9877 28.4972 40.9877 32.1417C40.9877 42.4587 24.0216 63 11.5113 63C6.83741 63 4 60.327 4 56.2299C4 46.0017 18.8273 36.0076 26.359 36.0076C30.8897 36.0076 31.4029 39.298 30.6258 41.0117C33.8751 37.1312 36.1824 32.2212 34.823 29.7901C32.249 25.1814 22.9116 28.2538 16.1822 32.979L15.8399 32.4821ZM47.7399 51.2316C48.1191 51.6964 48.7253 51.951 49.4536 51.951H53.7944L55.2331 46.5786H51.2068C49.495 46.5786 47.8304 47.7939 47.4142 49.3409C47.2267 50.0539 47.3445 50.7444 47.7399 51.2316ZM56.6757 33.793C58.0097 33.793 59.8739 34.4274 61.0253 35.8456C61.7814 36.7698 62.5331 38.4182 61.8393 41.0132L60.0725 47.613L57.6723 56.5918H52.5573H52.5549H48.531C46.2579 56.5918 44.1537 55.8364 43.0388 54.4679C41.9151 53.0892 41.4083 51.2131 41.9867 49.0473C43.1498 44.704 48.3665 42.0149 52.1085 42.0149H56.4561L56.7823 40.7937C56.9853 40.0261 56.9439 39.4409 56.6616 39.0468C56.312 38.5757 55.6854 38.5026 55.6786 38.5026L55.0174 38.4328H48.1172L49.3592 33.793H56.6757ZM111.285 33.793C109.305 33.793 107.466 34.3797 105.97 35.4901C104.46 36.6103 103.627 37.9563 103.13 39.813C102.053 43.8369 105.21 45.7788 107.746 47.1556L107.754 47.16C109.57 48.1452 111.139 48.996 110.798 50.2553C110.558 51.1604 110.163 51.9524 107.925 51.9524H101.093L99.8533 56.5918H107.416C109.443 56.5918 111.315 56.169 112.823 55.0093C114.332 53.8456 115.185 52.2246 115.712 50.246C116.219 48.3631 115.877 46.5645 114.667 45.2224C113.663 44.0993 112.219 43.3181 110.944 42.6284L110.931 42.6211C109.293 41.7383 107.749 40.9054 108.018 39.8959C108.183 39.2848 108.789 38.4328 110.111 38.4328H116.758L118 33.793H111.285ZM66.321 35.4901C67.8171 34.3797 69.656 33.793 71.6351 33.793H78.3484L77.104 38.4328H70.4617C69.1414 38.4328 68.5338 39.2848 68.3716 39.8959C68.1014 40.9054 69.6438 41.7383 71.2792 42.6211L71.2915 42.6277C72.5689 43.3176 74.0156 44.0989 75.0207 45.2224C76.2257 46.5645 76.5674 48.3631 76.063 50.246C75.5358 52.2246 74.6847 53.8456 73.173 55.0093C71.6652 56.169 69.7942 56.5918 67.764 56.5918H60.2021L61.4441 51.9524H68.2752C70.5133 51.9524 70.9062 51.1604 71.1492 50.2553C71.4866 48.9941 69.9169 48.1426 68.0966 47.1556C65.5605 45.7788 62.4013 43.8369 63.4763 39.813C63.9777 37.9563 64.8108 36.6103 66.321 35.4901ZM81.9534 33.793L76.022 56.5918H81.0332L86.9597 33.793H81.9534ZM85.3867 45.1926C86.8522 39.7101 91.4691 33.8247 100.291 33.793V33.7935H103.273L102.031 38.4333H99.343C95.1877 38.4333 91.3995 41.3009 90.3585 45.1926C89.0479 50.089 92.2997 51.9529 94.6643 51.9529H98.8966L97.6571 56.5923H93.4233C87.1054 56.5923 83.6506 51.6935 85.3867 45.1926Z" fill="#48545D"/>
</g>
<defs>
<filter id="filter0_d_5138_62901" x="0" y="0" width="122" height="96" filterUnits="userSpaceOnUse" color-interpolation-filters="sRGB">

<feBlend mode="normal" in2="BackgroundImageFix" result="effect1_dropShadow_5138_62901"/>
<feBlend mode="normal" in="SourceGraphic" in2="effect1_dropShadow_5138_62901" result="shape"/>
</filter>
</defs>
</svg>
