<svg width="193" height="88" viewBox="0 0 193 88" fill="none" xmlns="http://www.w3.org/2000/svg">
<rect width="193" height="88" fill="transparent"/>
<path fill-rule="evenodd" clip-rule="evenodd" d="M40.6614 32.9414H66.2505C68.2802 32.9414 69.8691 34.7907 68.545 36.991L65.8977 41.4802C64.7504 43.505 62.8123 44.473 61.3975 44.473C62.8096 45.2647 62.8096 46.6733 62.1031 47.9056L59.4567 52.4826C58.7502 53.7148 57.6918 55.2999 54.4268 55.2999H5.29059L5.27844 51.6023H29.6322L40.6614 32.9414ZM51.7795 50.1059L53.1036 47.9942C53.6324 47.0253 53.6324 45.9695 52.4851 45.9695H46.1347L42.7791 51.6023H49.309C50.8091 51.6023 51.4267 50.8107 51.7795 50.1059ZM57.3381 40.7754L58.6622 38.6629C59.1918 37.6948 59.1918 36.639 58.0437 36.639H51.6906L48.3377 42.2719H54.8676C56.3677 42.2719 56.9853 41.4802 57.3381 40.7754ZM101.194 32.9414H81.2513C78.516 32.9414 74.9862 32.9414 72.8685 36.639L64.0441 51.6023C62.8088 53.6271 63.8681 55.2999 66.1618 55.2999H89.3692C91.7517 55.2999 93.2518 54.5951 95.1046 51.6023L103.929 36.639C105.075 34.7029 103.311 32.9414 101.194 32.9414ZM89.9868 38.6629L83.3699 49.8417C82.4874 51.4268 81.6929 51.6023 79.6632 51.6023C77.6335 51.6023 77.1039 50.8984 77.7224 49.8417L84.4282 38.6629C85.3996 36.9901 86.5459 36.639 88.2228 36.639C89.8997 36.639 90.8693 37.1674 89.9868 38.6629ZM118.223 42.2719H131.282C134.017 42.2719 134.459 44.2966 133.576 45.9704L129.605 52.5722C128.546 54.3328 126.693 55.3008 124.575 55.3008H101.281C98.9871 55.3008 98.1927 53.8044 99.1631 52.1316L100.752 49.4907H113.988C113.282 50.5465 113.193 51.6023 114.782 51.6023C116.635 51.6023 117.43 50.8984 118.047 49.8417L120.253 45.9695H106.752C103.929 45.9695 103.841 44.2966 104.987 42.2719L109.135 35.2304C110.37 33.2056 112.047 32.9414 114.165 32.9414H137.636C140.018 32.9414 140.018 34.8784 139.048 36.639L137.724 39.0148H124.4C125.106 37.6948 124.664 36.639 123.341 36.639C122.017 36.639 121.222 37.1674 120.341 38.6629L118.223 42.2719ZM186.02 39.1691C186.02 38.1374 186.894 37.293 187.971 37.293C189.043 37.293 189.911 38.1374 189.911 39.1691C189.911 40.2222 189.043 41.0667 187.971 41.0667C186.894 41.0667 186.02 40.2222 186.02 39.1691ZM186.39 39.1682C186.39 40.0297 187.092 40.6977 187.971 40.6977C188.839 40.6977 189.541 40.0297 189.541 39.1682C189.541 38.3345 188.839 37.661 187.971 37.661C187.091 37.661 186.39 38.3345 186.39 39.1682ZM188.967 38.6763C188.967 38.4999 188.888 38.3127 188.727 38.2223C188.56 38.1309 188.378 38.1211 188.196 38.1211H187.247V40.2318H187.569V39.2584H187.949L188.57 40.2309H188.94L188.281 39.2584C188.668 39.2486 188.967 39.0927 188.967 38.6763ZM187.923 38.9969H187.569V38.3611H188.131C188.405 38.3611 188.645 38.3978 188.645 38.6709C188.646 39.0096 188.313 39.0035 188.025 38.9982C187.99 38.9975 187.956 38.9969 187.923 38.9969ZM189.48 36.639H156.391L153.127 42.2719H170.597L168.48 45.9695H150.92L147.568 51.6023H165.127L162.921 55.2999H132.214L145.362 32.9414H189.47L189.48 36.639Z" fill="#48545D"/>
</svg>
