<svg width="146" height="88" viewBox="0 0 146 88" fill="none" xmlns="http://www.w3.org/2000/svg">
<rect width="146" height="88" fill="transparent"/>
<path d="M29.4666 35.2587C24.1628 35.2587 20.0186 39.2725 20.0186 44.6459C20.0186 50.0192 24.0581 53.9987 29.4666 53.9987C34.8752 53.9987 38.9849 49.9505 38.9849 44.6115C38.9849 39.3069 34.9454 35.2587 29.4666 35.2587ZM29.5024 50.1262C26.4821 50.1262 24.2688 47.7877 24.2688 44.6472C24.2688 41.471 26.4463 39.1338 29.4666 39.1338C32.5228 39.1338 34.7347 41.5067 34.7347 44.6472C34.7347 47.7877 32.5228 50.1262 29.5024 50.1262ZM40.1432 39.3425H42.7779V53.6512H46.9924V35.6075H40.1432V39.3425ZM9.41226 39.1325C11.6255 39.1325 13.3815 40.4933 14.0481 42.5174H18.5091C17.7007 38.1905 14.1184 35.2587 9.44804 35.2587C4.1442 35.2587 0 39.2725 0 44.6472C0 50.0219 4.0395 54 9.44804 54C14.0137 54 17.6662 51.0682 18.4746 46.7056H14.0481C13.416 48.7297 11.66 50.1262 9.44672 50.1262C6.39058 50.1262 4.2489 47.7877 4.2489 44.6472C4.25023 41.471 6.35745 39.1325 9.41226 39.1325ZM120.22 42.9019L117.13 42.4487C115.655 42.24 114.601 41.7511 114.601 40.599C114.601 39.3425 115.971 38.715 117.832 38.715C119.869 38.715 121.169 39.587 121.45 41.0178H125.524C125.067 37.3885 122.257 35.26 117.938 35.26C113.477 35.26 110.527 37.5285 110.527 40.7391C110.527 43.8095 112.459 45.5905 116.357 46.1481L119.448 46.6012C120.959 46.81 121.801 47.4045 121.801 48.521C121.801 49.9518 120.326 50.545 118.289 50.545C115.795 50.545 114.39 49.533 114.18 47.9978H110.035C110.422 51.5227 113.196 54 118.254 54C122.855 54 125.91 51.9059 125.91 48.3109C125.91 45.1004 123.698 43.4251 120.22 42.9019ZM44.8852 28.1744C43.3399 28.1744 42.1802 29.2908 42.1802 30.8261C42.1802 32.3613 43.3385 33.4777 44.8852 33.4777C46.4304 33.4777 47.5901 32.3613 47.5901 30.8261C47.5901 29.2908 46.4304 28.1744 44.8852 28.1744ZM106.734 41.7855C106.734 37.8773 104.346 35.26 99.2886 35.26C94.5122 35.26 91.8431 37.6686 91.3156 41.368H95.4956C95.7063 39.9371 96.8302 38.7506 99.2183 38.7506C101.361 38.7506 102.415 39.6927 102.415 40.8448C102.415 42.3456 100.483 42.7288 98.0945 42.9732C94.8634 43.322 90.8597 44.4384 90.8597 48.6267C90.8597 51.8729 93.2837 53.9656 97.1469 53.9656C100.167 53.9656 102.064 52.7092 103.013 50.7194C103.153 52.4991 104.488 53.6512 106.35 53.6512H108.808V49.9175H106.735V41.7855H106.734ZM102.59 46.3225C102.59 48.731 100.483 50.5107 97.9182 50.5107C96.3372 50.5107 95.0026 49.8475 95.0026 48.4523C95.0026 46.6726 97.1456 46.1838 99.1123 45.975C101.009 45.8006 102.062 45.3818 102.59 44.5785V46.3225ZM80.2176 35.2587C77.8638 35.2587 75.8971 36.2364 74.4923 37.876V28H70.2778V53.6512H74.422V51.2783C75.8269 52.988 77.8294 54 80.2176 54C85.2749 54 89.1037 50.0219 89.1037 44.6472C89.1037 39.2725 85.2047 35.2587 80.2176 35.2587ZM79.5854 50.1262C76.565 50.1262 74.3518 47.7877 74.3518 44.6472C74.3518 41.5067 76.5995 39.1338 79.6199 39.1338C82.676 39.1338 84.8177 41.4723 84.8177 44.6472C84.8177 47.7877 82.6058 50.1262 79.5854 50.1262ZM60.1976 35.2587C57.4582 35.2587 55.6664 36.3751 54.6128 37.946V35.6075H50.4328V53.6499H54.6473V43.8439C54.6473 41.0865 56.4033 39.1325 59.0022 39.1325C61.4262 39.1325 62.9357 40.8421 62.9357 43.3207V53.6512H67.1501V43.0076C67.1515 38.4692 64.7991 35.2587 60.1976 35.2587ZM146 44.054C146 38.8894 142.207 35.26 137.114 35.26C131.705 35.26 127.736 39.3082 127.736 44.6472C127.736 50.2663 131.986 54 137.184 54C141.575 54 145.017 51.417 145.894 47.7533H141.503C140.871 49.3586 139.326 50.2663 137.253 50.2663C134.548 50.2663 132.511 48.591 132.055 45.6592H145.999V44.054H146ZM132.302 42.6575C132.97 40.1445 134.866 38.9237 137.044 38.9237C139.432 38.9237 141.258 40.2846 141.68 42.6575H132.302Z" fill="#48545D"/>
</svg>
