<svg width="139" height="88" viewBox="0 0 139 88" fill="none" xmlns="http://www.w3.org/2000/svg">
<rect width="139" height="88" fill="transparent"/>
<path fill-rule="evenodd" clip-rule="evenodd" d="M43.4076 56.5946H49.8114V31H43.4076V56.5946ZM12.7873 38.3571C13.6892 39.4855 14.1401 41.2176 14.1401 43.5524C14.1401 46.0514 13.6624 47.9083 12.7105 49.1221C11.7574 50.338 10.2607 50.9438 8.21812 50.9438H6.72149V36.6665H8.67764C10.5165 36.6665 11.8843 37.2297 12.7873 38.3571ZM17.6878 53.1409C19.9734 50.8403 21.1162 47.5627 21.1162 43.3092C21.1162 39.3565 20.0299 36.3359 17.8583 34.2433C15.6857 32.1518 12.6027 31.1054 8.60935 31.1054H0V56.5934H8.04759C12.1892 56.5934 15.4022 55.4426 17.6878 53.1409ZM135.317 49.6289C133.284 49.6289 131.633 51.28 131.633 53.315C131.633 55.35 133.284 57 135.317 57C137.351 57 139 55.35 139 53.315C139 51.28 137.351 49.6289 135.317 49.6289ZM59.449 50.7788C59.0236 49.9234 58.8104 48.6788 58.8104 47.0469C58.8104 45.4129 59.0236 44.1853 59.449 43.3629C59.8754 42.5417 60.5779 42.1289 61.5608 42.1289C62.5661 42.1289 63.2749 42.5438 63.6906 43.3725C64.1053 44.1991 64.3122 45.4236 64.3122 47.0469C64.3122 48.6788 64.1085 49.9234 63.6992 50.7788C63.2898 51.6353 62.5873 52.063 61.5937 52.063C60.5895 52.063 59.8754 51.6353 59.449 50.7788ZM68.3823 54.3199C70.0155 52.5814 70.83 50.156 70.83 47.0469C70.83 45.0663 70.4516 43.3341 69.6926 41.8537C68.9346 40.3712 67.8557 39.2331 66.4582 38.4385C65.0617 37.6439 63.4498 37.2461 61.6279 37.2461C58.6792 37.2461 56.3894 38.1047 54.7563 39.8219C53.1231 41.5391 52.3075 43.9474 52.3075 47.0469C52.3075 50.0781 53.1401 52.4821 54.8062 54.2612C56.4703 56.0402 58.7123 56.9298 61.5288 56.9298C64.4657 56.9298 66.7502 56.0595 68.3823 54.3199ZM73.373 56.5977H79.7778V46.8023V37.5859H73.373V56.5977ZM79.7778 35.2853H73.373V31H79.7778V35.2853ZM92.7503 51.7485C93.6149 51.7485 94.6446 51.5288 95.846 51.0926V55.8761C94.9825 56.2558 94.1617 56.5278 93.3814 56.6889C92.601 56.8521 91.6852 56.9331 90.6374 56.9331C88.4871 56.9331 86.9371 56.3924 85.9851 55.313C85.0374 54.2336 84.5619 52.5762 84.5619 50.3396V42.5024H82.3191V37.5876H84.5619V32.7325L91.0159 31.6094V37.5876H95.102V42.5024H91.0159V49.9023C91.0159 51.1331 91.5947 51.7485 92.7503 51.7485ZM110.663 51.0926C109.462 51.5288 108.432 51.7485 107.567 51.7485C106.411 51.7485 105.832 51.1331 105.832 49.9023V42.5024H109.92V37.5876H105.832V31.6094L99.3794 32.6589V37.5876H97.1353V42.5024H99.3794V50.3396C99.3794 52.5762 99.8548 54.2336 100.805 55.313C101.754 56.3924 103.304 56.9331 105.455 56.9331C106.505 56.9331 107.417 56.8521 108.199 56.6889C108.979 56.5278 109.801 56.2558 110.663 55.8761V51.0926ZM118.747 44.7303C118.834 43.6893 119.132 42.9267 119.639 42.4393C120.149 41.9529 120.778 41.7097 121.531 41.7097C122.352 41.7097 123.004 41.9827 123.488 42.5331C123.975 43.0803 124.229 43.813 124.249 44.7303H118.747ZM127.779 39.487C126.256 37.9938 124.097 37.2461 121.302 37.2461C118.365 37.2461 116.106 38.1047 114.521 39.8219C112.938 41.5391 112.146 44.0029 112.146 47.2133C112.146 50.3224 113.002 52.72 114.71 54.403C116.419 56.0861 118.818 56.9287 121.909 56.9287C123.393 56.9287 124.67 56.8274 125.74 56.6258C126.804 56.4264 127.834 56.0658 128.833 55.5453L127.849 51.2609C127.123 51.5574 126.432 51.7857 125.78 51.9361C124.837 52.1547 123.804 52.2646 122.678 52.2646C121.443 52.2646 120.469 51.9627 119.755 51.359C119.04 50.7543 118.66 49.9202 118.616 48.8579H130.063V45.9387C130.063 43.1304 129.302 40.9791 127.779 39.487ZM30.5068 42.4393C29.9994 42.9267 29.702 43.6893 29.6146 44.7303H35.1176C35.0952 43.813 34.8425 43.0803 34.3554 42.5331C33.8703 41.9827 33.218 41.7097 32.3992 41.7097C31.6455 41.7097 31.0153 41.9529 30.5068 42.4393ZM32.17 37.2461C34.9651 37.2461 37.1239 37.9938 38.6472 39.487C40.1696 40.9791 40.9307 43.1304 40.9307 45.9387V48.8579H29.4836C29.5273 49.9202 29.9068 50.7543 30.6221 51.359C31.3364 51.9627 32.3116 52.2646 33.545 52.2646C34.6708 52.2646 35.7039 52.1547 36.6484 51.9361C37.2997 51.7857 37.9906 51.5574 38.7166 51.2609L39.7016 55.5453C38.7017 56.0658 37.6717 56.4264 36.6078 56.6258C35.5375 56.8274 34.2604 56.9287 32.7765 56.9287C29.686 56.9287 27.2864 56.0861 25.5786 54.403C23.8687 52.72 23.0137 50.3224 23.0137 47.2133C23.0137 44.0029 23.8068 41.5391 25.3898 39.8219C26.9729 38.1047 29.2319 37.2461 32.17 37.2461Z" fill="#48545D"/>
</svg>
