<svg width="92" height="88" viewBox="0 0 92 88" fill="none" xmlns="http://www.w3.org/2000/svg">
<rect width="92" height="88" fill="transparent"/>
<path fill-rule="evenodd" clip-rule="evenodd" d="M36.8322 12.0136C36.5793 12.0309 34.7164 12.0893 32.6926 12.1431C26.9412 12.2963 23.8893 12.4778 20.9637 12.8406C18.2623 13.1755 16.0751 14.1512 14.3658 15.7836C12.3153 17.7421 11.4285 19.9035 11.1234 23.6869C11.0282 24.8668 11.1253 35.9477 11.3038 44.278C11.3974 48.6472 11.4882 49.6607 11.9553 51.5555C12.8662 55.25 14.7165 57.5334 17.4966 58.3938C18.1345 58.5912 20.7199 58.7904 26.0232 59.0507C32.9355 59.3898 42.5827 59.4998 51.2289 59.338C58.171 59.208 60.6059 59.1085 61.7972 58.906C65.8003 58.2254 69.0542 55.6612 70.4203 52.1105C71.2884 49.8542 71.4141 48.635 71.4181 42.4313C71.4213 37.3388 71.356 36.1025 70.9948 34.4155C70.5665 32.4149 69.7218 30.8091 68.3463 29.3806C66.8756 27.8531 65.1212 27.0375 62.3552 26.5952C60.7551 26.3393 55.1978 26.2515 44.0536 26.3059C33.2015 26.3589 27.6077 26.4705 26.8051 26.65C26.5522 26.7066 25.9933 26.9207 25.5633 27.1259C24.0014 27.8709 22.7592 29.507 22.5307 31.12C22.3503 32.3939 22.4928 41.0339 22.6978 41.2507C22.9015 41.4662 26.1246 41.8951 26.1845 41.7148C26.2616 41.4826 26.7972 40.8943 27.2255 40.5713C27.747 40.1779 28.5103 39.8664 29.2429 39.748C29.5212 39.703 34.5094 39.6004 40.3279 39.52C46.1464 39.4396 52.6159 39.3392 54.7046 39.297C56.7932 39.2548 58.6441 39.2524 58.8178 39.2918C59.2727 39.3947 59.7084 39.674 59.9307 40.0051C60.283 40.5299 60.3822 41.307 60.3814 43.5394C60.3807 45.4944 60.3681 45.6481 60.1682 46.1468C59.712 47.2843 58.9017 48.1221 58.0441 48.3429C57.1494 48.5732 35.2773 48.4326 28.9209 48.1556C26.0519 48.0306 25.5059 47.9437 24.5459 47.4592C23.132 46.7458 21.7478 44.9564 21.1561 43.0777C20.6916 41.6025 20.6532 41.0019 20.6746 35.5522C20.7054 27.7455 20.7985 26.7526 21.6647 24.9866C22.0118 24.2789 22.2311 23.9762 22.8385 23.3664C23.7138 22.4877 24.3786 22.1053 25.4818 21.8461C26.802 21.5358 28.0357 21.4515 30.7608 21.4851C32.1775 21.5027 35.6754 21.4809 38.5341 21.4368C43.6367 21.3581 50.5433 21.4337 58.8182 21.6589C64.5059 21.8137 65.7117 21.8865 66.4536 22.1202C67.6758 22.5052 68.7023 23.1492 69.7481 24.1873C71.9287 26.3516 72.6776 28.842 73.1381 35.4599C73.2971 37.7443 73.2995 45.7211 73.1416 47.1867C72.6259 51.9745 71.5504 54.5411 68.9777 57.1235C68.5254 57.5775 68.1554 58.0053 68.1554 58.0742C68.1554 58.2641 68.8618 58.8645 69.3299 59.0724C69.8445 59.3009 70.1236 59.2615 71.0156 58.8342C72.0881 58.3205 73.0671 57.6239 74.0575 56.6697C76.3748 54.4371 77.728 51.124 78.2887 46.3095C78.4735 44.7234 78.4234 28.0196 78.2289 26.3407C77.9299 23.761 77.3088 21.6296 76.2449 19.5318C74.9063 16.8926 73.1517 15.1489 70.63 13.9518C67.3419 12.3908 63.3115 12.0663 46.5374 12.0119C41.4525 11.9954 37.0852 11.9961 36.8322 12.0136ZM26.2496 64.8765C25.4951 64.9744 24.9562 65.3451 24.7415 65.914C24.6765 66.0862 24.6433 67.8237 24.6433 71.0618V75.9496H26.0692H27.4951L27.5081 75.6495C27.5152 75.4844 27.5463 73.945 27.5771 72.2283L27.6331 69.1074L29.6494 72.5327C30.7585 74.4166 31.6961 75.9768 31.733 75.9998C31.77 76.0227 32.7254 74.4146 33.8563 72.4263L35.9123 68.8112L35.9688 71.3878C35.9999 72.8049 36.031 74.411 36.0378 74.957L36.0503 75.9496H37.4302H38.8101V70.9309V65.9122L38.6031 65.607C38.2037 65.018 37.9706 64.9154 37.0326 64.9154C35.6151 64.9154 35.6148 64.9155 34.0265 67.5025C32.0836 70.667 31.9793 70.8214 31.7625 70.8526C31.6014 70.8758 31.2698 70.4158 29.7395 68.0471C28.7327 66.4887 27.8234 65.1571 27.7187 65.0879C27.4389 64.9031 26.7781 64.808 26.2496 64.8765ZM5.83104 64.9586C2.37298 65.0061 2.22754 65.0154 1.80557 65.2127C1.19181 65.4997 0.509596 66.1716 0.25248 66.7423C0.0442104 67.2046 0.0344592 67.3249 0.00704573 69.7624C-0.0230355 72.4308 0.0329874 73.0726 0.376392 73.9938C0.644088 74.7118 1.41121 75.4791 2.13251 75.7499C2.64187 75.9412 2.80525 75.9496 6.02302 75.9496C9.86782 75.9496 9.76101 75.9692 10.1452 75.1953C10.3829 74.7165 10.3846 74.6973 10.3832 72.5381C10.3824 71.3419 10.3514 70.317 10.3143 70.2605C10.2669 70.1884 9.76046 70.1714 8.62436 70.2035L7.00209 70.2494L7.19353 70.6756C7.34881 71.0216 7.38275 71.2714 7.37337 72.0015C7.36702 72.4961 7.33529 72.9849 7.30281 73.0874C7.03181 73.9445 3.62453 73.7054 3.1562 72.7964C2.86964 72.2402 2.76174 70.3423 2.93128 68.8397C3.01002 68.1417 3.05013 68.0273 3.29363 67.8066C3.86361 67.2898 5.05316 67.1351 7.92385 67.2044L10.1087 67.257V66.0631V64.8692L9.76368 64.8892C9.574 64.9002 7.80426 64.9314 5.83104 64.9586ZM15.8878 65.0197C15.5033 65.1798 15.6225 64.9011 13.07 71.6098C12.3647 73.4634 11.6997 75.1992 11.5925 75.4671L11.3975 75.954L12.9362 75.9287L14.475 75.9034L14.8572 74.7492L15.2393 73.595H17.2965H19.3538L19.6025 74.3799C19.7393 74.8116 19.8961 75.3414 19.951 75.5572L20.0508 75.9496H21.6549H23.2589L23.1796 75.7419C22.429 73.7757 19.0483 65.4945 18.9214 65.311C18.823 65.1689 18.6003 65.0191 18.4069 64.9653C17.8822 64.819 16.2867 64.8535 15.8878 65.0197ZM43.3009 64.9569C41.7343 65.012 41.599 65.0555 41.1615 65.6433C40.9768 65.8916 40.9712 66.0172 40.9464 70.4619C40.9176 75.6142 40.8974 75.4505 41.5989 75.7702C41.9587 75.9342 42.2569 75.9457 46.1924 75.9476L50.401 75.9496V74.7492V73.5489H47.2229H44.0448L43.8304 73.3167C43.4037 72.8546 43.4826 72.0439 43.9911 71.6648C44.2387 71.4802 44.3757 71.47 46.9578 71.4442L49.6651 71.4173V70.355V69.2927L46.9502 69.3069C43.8875 69.323 43.8635 69.3182 43.6874 68.6616C43.5754 68.2441 43.6714 67.6773 43.9179 67.2997L44.0769 67.0561L47.1929 67.1129L50.309 67.1696V66.0194V64.8692L47.5263 64.8877C45.9958 64.8978 44.0943 64.929 43.3009 64.9569ZM53.6897 64.9383L52.4248 64.9667L52.4254 69.9734C52.4256 73.1339 52.4609 75.1068 52.5209 75.3237C52.6991 75.9677 52.571 75.9496 56.9529 75.9496C59.1172 75.9496 60.8881 75.9292 60.8881 75.9044C60.8881 75.8794 60.7121 75.5986 60.4971 75.2803C60.2821 74.962 59.9854 74.4437 59.8378 74.1285L59.5695 73.5555L57.8131 73.6122C56.2832 73.6616 56.0187 73.6492 55.7614 73.5156C55.5989 73.4313 55.4234 73.2824 55.3713 73.1846C55.3122 73.0737 55.2764 71.9213 55.2762 70.1154C55.2757 66.6707 55.1993 64.8605 55.0554 64.8894C54.9999 64.9006 54.3854 64.9226 53.6897 64.9383ZM63.2803 65.1155C62.3538 65.4409 61.6418 66.1719 61.3832 67.0633C61.2661 67.4669 61.2483 68.0447 61.2773 70.4798C61.3095 73.1763 61.3276 73.4517 61.5046 73.928C61.8645 74.8965 62.3871 75.5393 63.0362 75.8114C63.3356 75.9369 63.8851 75.9627 66.5779 75.9779C69.7442 75.9957 69.7684 75.9943 70.2428 75.779C70.8966 75.4822 71.6524 74.6703 71.9325 73.964C72.1421 73.4354 72.1535 73.2936 72.1845 70.8249C72.2063 69.0962 72.1814 68.0559 72.1094 67.6855C71.8875 66.5445 71.26 65.6122 70.4369 65.2005L69.9591 64.9615L66.8265 64.966C64.2225 64.9696 63.6241 64.9949 63.2803 65.1155ZM74.8494 65.1516C74.2067 65.4923 74.2268 65.3059 74.2268 70.9126V75.9496H75.6067H76.9866V73.9308V71.912L77.2291 71.6685C77.4701 71.4267 77.4806 71.4251 78.8849 71.4251H80.2983V70.504V69.5828L78.7673 69.5575L77.2362 69.5322L77.0537 69.2867C76.8213 68.9741 76.7244 67.867 76.8936 67.4571L77.0089 67.1776H80.6314H84.2539V71.5636V75.9496H85.6329H87.0118L87.0358 71.6329L87.0597 67.3161L89.5298 67.3494L92 67.3826L91.9328 67.1647C91.817 66.7902 91.4147 66.0356 91.1764 65.7464C91.0509 65.594 90.7812 65.3552 90.577 65.2154L90.2057 64.9615L82.6993 64.9656C75.412 64.9696 75.1827 64.975 74.8494 65.1516ZM68.6852 67.3618C68.8501 67.4627 69.0683 67.6807 69.1702 67.8462C69.3452 68.1304 69.354 68.2788 69.3304 70.5175L69.3053 72.888L69.0753 73.1348C68.6257 73.6176 68.4044 73.6742 66.8036 73.716C65.4294 73.7519 65.2827 73.7398 64.9118 73.5596C64.6385 73.4268 64.4378 73.2383 64.2857 72.9717C64.0634 72.5822 64.062 72.5633 64.0893 70.4094C64.12 67.9859 64.1663 67.7717 64.7423 67.3866C65.0383 67.1887 65.1434 67.1776 66.7201 67.178C68.2195 67.1783 68.4153 67.1965 68.6852 67.3618ZM17.5787 68.5865C17.9228 69.4625 18.3879 71.0214 18.3879 71.2986V71.5174H17.1903H15.9926L16.0499 71.2635C16.311 70.1076 16.4039 69.8235 17.1108 68.0189C17.2224 67.734 17.2636 67.784 17.5787 68.5865Z" fill="#48545D"/>
</svg>
