<svg width="64" height="88" viewBox="0 0 64 88" fill="none" xmlns="http://www.w3.org/2000/svg">
<rect y="8" width="64" height="64" fill="transparent"/>
<path d="M32 76C31.7037 76 31.358 76 31.0617 76L37.5802 58.0247H46.5679C48.1481 58.0247 49.8765 56.7901 50.4198 55.3086L57.5309 35.8025C58.716 32.5926 56.8395 29.9753 53.4815 29.9753H40.9877L30.5185 58.8148L24.5926 75.1605C10.5185 71.8025 0 59.1605 0 44C0 29.3333 9.87654 16.9383 23.358 13.1852L17.2346 30.0247L7.06173 58.0247H13.8272L22.4691 34.2222H27.5556L18.9136 58.0247H25.679L33.7778 35.8519C34.963 32.642 33.1358 30.0247 29.7284 30.0247H24L30.5679 12.0494C31.0617 12.0494 31.5062 12 32 12C49.679 12 64 26.321 64 44C64 61.679 49.679 76 32 76ZM51.358 34.2222H46.2716L39.1111 53.8272H44.1975L51.358 34.2222Z" fill="#48545D"/>
</svg>
