<svg width="137" height="88" viewBox="0 0 137 88" fill="none" xmlns="http://www.w3.org/2000/svg">
<path fill-rule="evenodd" clip-rule="evenodd" d="M101.144 57.9691C101.144 58.2431 101.237 59.5304 101.697 60.3544V60.3549H100.594C100.558 60.0689 100.41 59.8106 100.259 59.5473C100.024 59.1361 99.7817 58.7129 99.9491 58.1534C100.012 58.091 100.117 58.0498 100.231 58.0046C100.455 57.9168 100.716 57.8141 100.776 57.5117C100.686 57.324 100.594 57.1479 100.502 57.1479L100.041 57.324C100.041 57.1474 100.134 56.9587 100.409 56.6147L101.421 56.4237C101.144 56.8656 101.144 57.5112 101.144 57.9691ZM132.399 37.6416C135.348 40.5346 137 44.5715 137 48.566C137 51.9168 135.714 55.4047 133.508 57.5097C131.849 59.1603 130.089 59.8034 127.819 59.8034H126.721C126.08 60.1725 125.528 60.3535 124.888 60.3535H119.257C119.257 60.0515 119.313 59.86 119.364 59.6876C119.405 59.5463 119.443 59.4177 119.443 59.2515C119.443 58.9789 119.9 58.4279 120.177 58.4279L120.729 59.5294C121.008 59.2515 121.096 59.0696 121.096 58.6117C121.096 58.2426 120.455 57.6921 120.455 57.6921L121.008 57.1464C121.144 57.2335 121.212 57.3461 121.268 57.4375C121.325 57.5309 121.368 57.6024 121.456 57.6024C121.884 57.6024 122.139 57.5102 122.139 57.3225C122.139 57.2367 122.038 57.1479 121.914 57.0399C121.784 56.9257 121.629 56.79 121.543 56.6133C121.282 56.4227 121.009 56.2408 120.64 56.2408C119.994 56.2408 118.891 57.8755 118.797 58.7951L118.706 60.3535H117.698C117.736 60.0408 117.724 59.7448 117.712 59.451C117.697 59.0557 117.681 58.6645 117.787 58.2421C117.787 58.1826 117.946 58.2811 118.107 58.3816C118.192 58.4342 118.278 58.4874 118.342 58.5186C118.342 58.4033 118.421 58.2882 118.5 58.1733C118.611 58.0128 118.722 57.8525 118.616 57.6916C118.432 57.5097 118.065 57.1459 118.065 57.1459C118.155 56.9568 118.341 56.4222 118.341 56.4222C118.341 56.4222 119.352 56.772 119.17 56.6133C119.17 56.5371 119.125 56.4768 119.084 56.4204C119.021 56.3353 118.965 56.2589 119.076 56.1496C119.205 56.1078 119.354 56.1649 119.495 56.2188C119.655 56.28 119.804 56.3371 119.901 56.2403C119.946 56.1518 119.97 56.1068 119.97 56.0615C119.971 56.0146 119.948 55.9674 119.901 55.8712C119.72 55.7824 119.258 55.6744 118.616 55.6744C117.969 55.6744 117.941 55.7401 117.871 55.9008C117.851 55.9462 117.828 55.9992 117.787 56.0604C117.289 56.1044 116.924 56.171 116.616 56.2271C116.3 56.2848 116.044 56.3315 115.766 56.3315L114.753 57.6916C114.753 58.2421 114.753 58.9784 114.937 59.5294C114.975 59.6057 115.029 59.6972 115.091 59.8038C115.181 59.956 115.288 60.1392 115.394 60.3535H104.747C104.765 60.3182 104.783 60.2828 104.802 60.2474C104.971 59.9177 105.143 59.5848 105.394 59.2515C105.394 59.4547 105.492 59.5096 105.581 59.5597C105.614 59.5782 105.646 59.5961 105.671 59.6206H106.403C106.68 59.6206 106.958 59.6206 107.139 59.2515C107.035 59.2101 106.93 59.1734 106.827 59.1372C106.476 59.014 106.138 58.8954 105.852 58.6117V57.6024C105.852 56.8647 105.208 56.6133 104.747 56.6133C104.389 56.6133 103.884 56.8642 103.715 57.1459C103.593 57.0814 103.48 56.9987 103.369 56.9178C103.156 56.7622 102.953 56.6133 102.714 56.6133V56.1496C102.714 55.9987 102.74 55.9297 102.764 55.8667C102.785 55.8137 102.803 55.7648 102.803 55.6749C103.405 55.4217 103.971 55.6413 104.462 55.8318C104.497 55.8453 104.531 55.8587 104.565 55.8717H105.026C105.026 55.8295 105.005 55.8074 104.984 55.7841C104.96 55.7585 104.935 55.7315 104.935 55.6749C104.389 54.941 103.447 54.7572 102.439 54.941C102.232 55.024 102.118 55.2015 102.03 55.3383C101.921 55.5068 101.852 55.6133 101.699 55.4042C101.456 55.4042 101.264 55.48 101.083 55.5514C100.922 55.6151 100.769 55.6753 100.597 55.6753L99.952 55.7834C99.9073 55.828 99.9073 55.8504 99.9073 55.8963C99.9073 55.9422 99.9073 56.0116 99.8626 56.1506C99.4943 56.6142 99.2164 57.1469 98.9424 57.6926C98.9424 57.844 98.9286 58.0094 98.9144 58.1812C98.8767 58.634 98.8355 59.1309 99.0327 59.5304C99.2169 59.7156 99.4006 60.0814 99.4943 60.3544H85.7077C85.2433 59.6211 85.1515 59.0706 85.1515 58.2431C85.1515 57.6033 85.5217 57.1474 85.7077 56.9583C85.7077 56.4232 85.7078 56.0613 86.4699 55.4047C86.8257 55.0336 87.5564 54.9415 88.1084 55.2194C88.481 54.6684 89.0291 54.4846 89.5448 54.3939C90.0977 54.3939 90.7424 54.4851 91.2021 54.9415C91.754 52.7404 92.5805 50.4443 93.318 49.2607C92.58 47.4625 92.0295 45.81 91.6598 43.9298C91.6598 43.8372 91.7535 43.6529 91.7535 43.6529L92.029 43.3793C92.0829 43.2719 92.1291 43.1644 92.1743 43.0593C92.2836 42.805 92.3872 42.5641 92.58 42.3685C92.2132 42.3685 92.029 42.5538 92.029 42.5538C91.7535 42.645 91.5694 42.8278 91.5694 43.0121C91.479 42.8278 91.479 42.8278 91.479 42.645C91.479 42.4612 91.456 42.2773 91.4331 42.0935C91.4101 41.9099 91.3872 41.7264 91.3872 41.5434C91.3872 41.2675 91.6593 40.8091 92.029 40.8091V39.6627C91.7535 39.8364 91.2016 40.3488 91.2016 40.3488V38.9274C91.3872 38.8362 91.5689 38.7446 91.6593 38.3755C91.6593 36.5416 91.7535 34.9195 92.2132 33.4667C92.3677 33.0046 92.651 32.737 92.9012 32.5006C92.9491 32.4553 92.9958 32.4112 93.0401 32.3671V31.0287C93.223 30.9824 93.3604 30.8453 93.498 30.7081C93.6368 30.5696 93.7757 30.4311 93.9613 30.3856C93.8671 30.2929 93.5916 30.2929 93.4074 30.2929C93.6834 29.4751 94.1416 29.0187 94.7868 28.4643L94.7914 28.4594C94.9586 28.2775 95.2076 28.0066 95.4538 27.9148C95.5379 27.9148 95.5379 28.0074 95.5379 28.0074C95.8605 28.0074 96.1371 28.0763 96.4136 28.1451C96.6896 28.2138 96.9654 28.2824 97.2865 28.2824C97.1029 28.0074 96.7322 27.731 96.4581 27.731V27.6383C96.9168 27.3638 97.2865 27.1809 97.8409 27.1809C97.8877 27.427 98.0434 27.6205 98.1911 27.8041C98.318 27.9618 98.439 28.1121 98.4798 28.282L98.8486 28.4638C98.8218 28.3255 98.8281 28.1701 98.8346 28.0106C98.8495 27.6431 98.8654 27.2537 98.4798 27C98.8481 27 99.7688 27.3638 100.504 27.731C100.599 27.731 100.766 27.6581 100.956 27.5748C101.136 27.496 101.338 27.4079 101.519 27.3638C101.481 27.5806 101.415 27.7973 101.349 28.0141C101.248 28.3479 101.146 28.6822 101.146 29.0182C101.263 28.901 101.347 28.7841 101.427 28.6743C101.535 28.5239 101.634 28.3871 101.792 28.282C101.792 28.0827 101.873 27.9101 101.961 27.7209C102.036 27.5614 102.116 27.3901 102.158 27.1809C102.803 27.0873 103.263 27.0873 103.799 27.1809C103.332 27.3404 103.344 27.6397 103.355 27.8971C103.357 27.9348 103.358 27.9716 103.358 28.0069H103.447C103.684 28.0069 103.915 27.8812 104.118 27.771C104.215 27.7177 104.307 27.668 104.389 27.6378C104.935 27.6378 105.115 27.7305 105.393 28.0069C105.274 28.0856 105.137 28.1475 105.006 28.207C104.832 28.2858 104.668 28.3602 104.565 28.4638H106.035L106.315 28.282C107.303 28.8917 107.726 29.9339 108.152 30.9828C108.24 31.2004 108.329 31.4184 108.423 31.6328C108.374 31.6077 108.32 31.5772 108.264 31.546C108.109 31.4596 107.944 31.3674 107.877 31.3674C107.877 31.6328 107.877 32.0916 108.241 32.1819C108.461 32.1819 108.576 32.2992 108.706 32.4318C108.775 32.5026 108.849 32.5778 108.945 32.6417C109.091 32.7876 109.256 32.9271 109.423 33.0687C109.888 33.4616 110.371 33.8701 110.507 34.4741C111.005 35.4437 111.137 35.9955 111.264 36.5219C111.347 36.8689 111.428 37.2049 111.609 37.6421C111.492 37.5256 111.343 37.4915 111.189 37.4562C110.978 37.4079 110.757 37.3574 110.595 37.0921C110.595 37.5519 110.876 37.919 111.153 38.1916C111.429 38.3755 111.7 38.3755 111.886 38.3755C112.26 38.8246 112.33 39.3955 112.393 39.9154C112.408 40.034 112.422 40.1498 112.439 40.261C112.43 40.2538 112.42 40.2458 112.409 40.2372C112.309 40.1557 112.136 40.015 111.886 39.9295C111.429 40.3488 112.345 40.9008 112.611 40.9925V42.3685C113.744 43.2867 115.028 43.6529 116.042 43.6529C116.962 43.6529 118.155 43.3793 118.89 42.8278C118.796 42.369 119.075 41.6346 119.535 41.2675C119.9 40.8091 120.454 40.8091 121.007 40.8091C122.138 40.8091 123.227 41.6342 124.24 42.645C126.356 44.8002 127.899 49.0243 127.899 52.9242C127.899 54.5801 127.732 55.6763 127.459 56.6147C127.732 56.8656 128.435 57.1474 128.895 57.1474C131.3 57.1474 135.163 54.4851 135.163 47.738C135.163 43.0121 132.217 38.2881 128.066 36.2641C127.457 36.1203 126.887 36.2043 126.311 36.2893C125.791 36.3661 125.265 36.4437 124.697 36.3558C123.873 36.0818 123.043 35.5694 122.49 34.919L122.581 34.85C122.691 35.0595 122.933 35.0771 123.207 35.0971C123.393 35.1106 123.595 35.1252 123.779 35.2017C123.839 35.0807 123.746 34.9703 123.671 34.8819C123.629 34.8325 123.593 34.79 123.593 34.7564C124.052 34.4732 124.606 34.4732 125.156 34.4732C124.872 34.0224 124.518 34.0253 124.18 34.0282C123.971 34.0299 123.769 34.0316 123.593 33.926C123.412 33.7436 123.227 33.7436 123.042 33.926C123.042 33.926 123.227 34.2932 123.227 34.4732C123.134 34.4732 123.019 34.4282 122.904 34.3832C122.788 34.3382 122.673 34.2932 122.581 34.2932H122.05C121.873 34.1021 121.737 33.8443 121.596 33.5778C121.332 33.0771 121.051 32.5453 120.453 32.3662V32.1809C120.931 32.0891 121.398 31.9401 121.865 31.7915C122.794 31.4955 123.717 31.2013 124.696 31.3665C124.887 31.3665 125.156 31.3665 125.249 31.5373L124.887 31.9064C125.249 32.1809 125.711 32.4574 126.171 32.4574H126.265C126.171 32.1814 126.078 31.9068 125.984 31.6323C126.535 31.9068 126.812 32.1814 127.275 32.6412C127.642 33.376 128.065 33.9265 128.615 34.4736C129.204 35.1469 129.876 35.6365 130.568 36.1409C131.177 36.5847 131.801 37.0399 132.399 37.6416ZM116.312 56.9583L117.232 56.8656C117.209 56.938 117.174 57.0279 117.134 57.1292C117.017 57.4222 116.863 57.8112 116.863 58.1529C116.863 58.7009 116.946 59.1676 117.028 59.6338C117.07 59.8706 117.112 60.1073 117.143 60.3544H116.312C116.285 60.2989 116.256 60.2424 116.228 60.1849C115.97 59.6727 115.671 59.0779 115.671 58.3357C115.671 58.1524 115.763 57.6926 115.946 57.6926C116.031 57.8198 116.077 57.9466 116.119 58.0645C116.169 58.2024 116.214 58.3282 116.312 58.4284C116.497 58.2431 116.685 57.9686 116.685 57.6926C116.685 57.6033 116.685 57.1474 116.312 56.9583ZM104.563 57.5112C104.934 57.5112 105.206 57.6033 105.206 57.9691C105.206 58.2587 104.987 58.803 104.758 59.3721C104.624 59.7065 104.486 60.0495 104.387 60.3544H103.798C103.798 60.3544 103.967 58.3362 103.967 57.9691C103.967 57.7852 104.387 57.5112 104.563 57.5112ZM103.223 57.8902C103.232 57.8866 103.238 57.8759 103.261 57.8759C103.261 58.234 103.239 58.6348 103.215 59.0468C103.191 59.4826 103.166 59.9309 103.166 60.3544H102.437C102.156 59.6211 101.975 58.6122 101.975 57.8759C101.975 57.6926 102.249 57.1469 102.437 57.1469C103.136 57.8424 103.193 57.9018 103.223 57.8902ZM126.444 34.2937C126.72 34.2937 127.091 34.4736 127.275 34.8505L127.181 34.2937C127.134 34.1028 127.011 33.9369 126.878 33.757C126.755 33.5909 126.623 33.4129 126.534 33.1922C126.278 33.1922 126.05 33.2788 125.85 33.3547C125.693 33.414 125.554 33.4667 125.432 33.4667C125.803 33.4667 126.171 33.9265 126.444 34.2937ZM123.503 32.9157H124.512C124.336 32.6807 124.122 32.5585 123.894 32.4279C123.766 32.3553 123.635 32.28 123.503 32.1814C123.359 32.2389 123.234 32.3051 123.113 32.369C122.844 32.5107 122.596 32.6412 122.224 32.6412C122.58 32.9157 122.672 32.9157 122.858 32.9157C122.916 32.9157 122.984 32.8882 123.055 32.8594C123.209 32.797 123.379 32.728 123.503 32.9157ZM121.74 43.1638C121.91 43.2362 122.092 43.3136 122.307 43.3788C122.225 43.0116 122.137 42.8273 121.964 42.5533C121.843 42.4872 121.687 42.4799 121.535 42.4728C121.262 42.46 121.006 42.4479 121.006 42.0935L121.004 42.0924C120.818 42.0001 120.636 41.9099 120.269 42.0935C119.898 42.2773 119.442 43.0116 119.717 43.3788C119.806 43.1969 120.637 42.9214 120.819 42.9214C121.172 42.9214 121.437 43.0347 121.74 43.1638ZM121.651 44.6661C121.788 44.6862 121.941 44.7085 122.225 44.7085C122.225 44.297 121.708 43.8372 121.094 43.8376C120.727 43.8376 120.269 44.2082 119.992 44.4808C119.987 44.4917 119.983 44.5026 119.978 44.5134C119.891 44.7271 119.815 44.9104 119.992 45.2581C120.269 44.7997 120.819 44.6347 121.28 44.6347C121.436 44.6347 121.538 44.6497 121.651 44.6661ZM121.881 45.9919C122.489 45.9919 123.593 46.2732 124.33 46.7306C124.239 46.1801 123.872 45.4395 123.411 45.439C123.328 45.439 123.244 45.4771 123.153 45.519C123.041 45.5702 122.917 45.6272 122.764 45.6272C122.643 45.6272 122.611 45.5395 122.574 45.4411C122.528 45.3156 122.475 45.1727 122.224 45.1727C122.192 45.1727 122.148 45.1964 122.093 45.2264C121.998 45.2778 121.87 45.3473 121.708 45.3473C121.583 45.3473 121.433 45.3694 121.28 45.3919C121.121 45.4152 120.959 45.439 120.819 45.439C120.647 45.439 120.556 45.54 120.451 45.657C120.331 45.7896 120.193 45.9427 119.898 45.9919L120.086 46.8189C120.453 46.4537 121.541 45.9919 121.881 45.9919ZM123.226 48.29C123.321 48.5655 123.962 48.7474 124.606 48.7474C124.606 48.5528 124.527 48.3568 124.454 48.1742C124.39 48.0151 124.33 47.8661 124.33 47.7371C124.225 47.7034 124.134 47.6301 124.037 47.5518C123.877 47.4221 123.699 47.2787 123.412 47.2787C123.182 47.2787 123.136 47.3243 123.089 47.37C123.042 47.4158 122.996 47.4616 122.764 47.4616C122.635 47.4616 122.507 47.4208 122.372 47.3777C122.222 47.3296 122.063 47.2787 121.881 47.2787C121.678 47.2787 121.569 47.3368 121.437 47.4068C121.237 47.5134 120.984 47.6478 120.269 47.6478V48.565C120.453 48.6552 120.637 48.6552 120.819 48.6552C121.28 48.6552 121.626 48.4714 121.626 48.0135C121.626 47.8538 121.797 47.9094 121.974 47.9669C122.103 48.0088 122.235 48.0517 122.307 48.0135C122.307 48.0135 122.58 47.7375 122.764 47.7375C123.06 47.7375 123.091 47.8879 123.123 48.0448C123.141 48.133 123.16 48.2233 123.226 48.29ZM123.568 50.6612C123.648 50.6816 123.721 50.7003 123.778 50.7188C123.778 50.1551 123.569 49.9033 123.408 49.7095C123.308 49.5882 123.226 49.4896 123.226 49.3514C123.226 49.0861 122.58 49.0861 121.964 49.0861C121.625 49.0861 120.911 49.2607 120.727 49.3514C120.819 49.7099 121.094 50.0771 121.094 50.0771L121.161 50.0541C121.648 49.8874 121.896 49.8026 122.224 49.8026C122.672 49.8026 122.858 49.8952 122.858 50.2624C122.858 50.48 123.263 50.5833 123.568 50.6612ZM107.69 37.3666C107.69 37.3666 107.876 36.5411 107.876 36.4484C107.876 36.3155 107.734 36.0885 107.584 35.8496C107.525 35.7565 107.466 35.6617 107.413 35.5698L106.955 37.5519L107.69 37.3666ZM125.249 55.1268C125.527 54.6684 125.527 54.4851 125.527 53.9341C125.527 53.84 125.249 53.2002 125.156 53.2002C125.015 53.4402 124.948 53.655 124.889 53.8442C124.835 54.0176 124.787 54.1695 124.696 54.2998L125.249 55.1268ZM122.848 52.2677C122.96 52.5234 123.055 52.7404 123.321 52.7404H123.322V51.3619C123.074 51.3619 122.908 51.2794 122.742 51.197C122.661 51.1567 122.58 51.1164 122.489 51.086C122.275 51.0117 122.177 50.9219 122.089 50.8418C121.962 50.7259 121.858 50.63 121.454 50.63C121.094 50.8119 121.006 51.1791 121.006 51.3624C121.006 51.3624 120.912 51.9168 120.912 52.0061C121.1 51.9603 121.238 51.8165 121.362 51.6873C121.479 51.5646 121.584 51.4551 121.708 51.4551C122.494 51.4551 122.688 51.9011 122.848 52.2677ZM116.162 46.1521C116.61 46.7195 117.013 47.2297 117.599 47.5552V46.8189C117.478 46.6353 117.355 46.5336 117.231 46.4322C117.171 46.3825 117.11 46.3329 117.05 46.2737C116.806 46.2324 116.634 46.0655 116.454 45.8916C116.227 45.6711 115.988 45.4395 115.577 45.4395C115.789 45.6808 115.979 45.9212 116.162 46.1521ZM108.668 40.0241C108.944 40.5341 109.219 40.8086 109.771 40.8086C109.771 40.6103 109.676 40.4128 109.587 40.2291C109.553 40.1585 109.52 40.0899 109.494 40.0241C109.469 39.9986 109.451 39.9474 109.43 39.8897C109.375 39.7331 109.303 39.529 109.036 39.6623C108.92 39.5483 108.876 39.4337 108.815 39.2739C108.779 39.1779 108.736 39.0656 108.668 38.9274C108.605 39.248 108.629 39.5202 108.65 39.7491C108.659 39.8488 108.668 39.9404 108.668 40.0241ZM124.606 56.8651C124.696 56.6142 124.696 56.6142 124.886 56.3325C124.886 56.2255 124.821 56.1814 124.766 56.1451C124.729 56.1197 124.696 56.0981 124.696 56.0613C124.606 55.8722 124.696 55.6753 124.696 55.6753C124.696 55.2194 124.33 54.9415 124.052 54.7577L123.685 55.4047C123.853 55.7469 124.061 55.9895 124.236 56.1945C124.444 56.4364 124.606 56.6259 124.606 56.8651L124.606 56.8651ZM122.958 54.2726C123.007 54.1015 123.042 53.979 123.042 53.7512C122.979 53.6872 122.868 53.442 122.775 53.2379C122.736 53.151 122.7 53.0716 122.673 53.0169C122.478 53.0169 122.319 52.93 122.167 52.8468C121.968 52.7381 121.781 52.6357 121.541 52.7409C121.368 52.6176 121.189 52.658 121.006 52.6991C120.914 52.7199 120.821 52.7409 120.727 52.7409C120.727 52.8825 120.687 52.9697 120.647 53.0546C120.584 53.1908 120.524 53.3212 120.637 53.6605C120.775 53.6605 120.928 53.6183 121.086 53.5747C121.449 53.4745 121.838 53.3671 122.137 53.7512C122.158 53.7729 122.174 53.8334 122.196 53.9138C122.262 54.1626 122.379 54.6014 122.858 54.6689C122.893 54.4966 122.928 54.3758 122.958 54.2726ZM118.369 50.4032C118.399 50.2715 118.429 50.1368 118.429 49.9864C118.429 49.7549 118.3 49.5241 118.203 49.3526C118.185 49.3197 118.168 49.2889 118.153 49.2607C118.153 49.17 117.784 49.17 117.695 49.17C117.561 49.2348 117.569 49.2536 117.585 49.2916C117.591 49.307 117.599 49.3257 117.599 49.3519C117.691 49.6207 117.827 49.8907 117.964 50.1618C118.104 50.4391 118.245 50.7176 118.339 50.9972C118.283 50.7797 118.325 50.5946 118.369 50.4032ZM109.981 42.8828C110.126 42.9697 110.345 43.1012 110.414 42.8273C110.137 42.8273 109.953 42.5538 109.771 42.2773C109.563 42.1399 109.358 42.2079 109.113 42.2888C109.03 42.3162 108.943 42.3451 108.849 42.368C108.849 42.503 108.899 42.5877 108.962 42.6941C108.985 42.7342 109.01 42.7773 109.035 42.8273H109.866C109.888 42.8273 109.93 42.8523 109.981 42.8828ZM110.876 44.7997C111.428 45.2576 112.162 45.1732 112.438 44.8924C112.383 44.8644 112.311 44.8367 112.23 44.8054C112.041 44.7324 111.802 44.6402 111.608 44.4808L110.876 44.7997ZM117.099 50.9278C117.121 50.63 117.143 50.3431 117.143 50.0771C117.072 49.8681 116.896 49.7648 116.693 49.6463C116.63 49.6091 116.564 49.5705 116.498 49.5266C116.577 49.4525 116.639 49.377 116.706 49.2967C116.795 49.1876 116.893 49.0695 117.051 48.9331C116.806 48.7703 116.706 48.5168 116.615 48.2851C116.501 47.9944 116.4 47.738 116.042 47.738C115.764 47.4625 115.672 47.3704 115.672 47.188C115.307 46.8189 114.841 46.8189 114.383 46.8189C114.482 46.8938 114.588 46.9617 114.692 47.0282C114.973 47.2089 115.238 47.379 115.307 47.6488C115.447 47.9646 115.601 48.2498 115.748 48.5218C115.983 48.9586 116.2 49.3613 116.313 49.8026C116.352 49.9212 116.392 50.0355 116.431 50.1472C116.574 50.5554 116.704 50.9297 116.775 51.3619C116.775 51.731 116.775 51.9163 117.051 51.9163C117.051 51.5826 117.075 51.2489 117.099 50.9278ZM113.314 47.8136C113.444 47.6905 113.552 47.5886 113.552 47.3704C113.552 47.1124 113.241 46.771 112.995 46.5005C112.98 46.4846 112.966 46.469 112.952 46.4537C112.867 46.7306 112.867 46.9091 112.867 47.2796V47.2797C112.867 47.4625 113.204 47.9223 113.204 47.9223C113.241 47.8826 113.278 47.8473 113.314 47.8136ZM121.965 55.8727C121.965 55.8727 122.137 55.7106 122.137 55.6758C122.137 55.3128 121.885 55.221 121.63 55.1284L121.626 55.1268C121.533 54.9782 121.44 54.9896 121.331 55.0028C121.237 55.0142 121.132 55.027 121.006 54.9415C121.094 54.6684 121.094 54.5796 121.094 54.3939C120.858 54.3939 120.757 54.3243 120.559 54.1878C120.526 54.1656 120.492 54.1417 120.453 54.116C120.269 54.116 120.269 54.116 120.176 54.2998L119.35 55.1268C119.567 55.1268 119.661 55.043 119.759 54.9553C119.867 54.8589 119.98 54.7577 120.269 54.7577C120.453 54.7577 120.727 55.2194 120.727 55.5846C121.28 55.5846 121.541 55.6758 121.965 55.8727ZM114.382 49.7099C114.475 49.7099 114.751 49.5261 114.751 49.3514C114.935 49.1696 114.751 48.8405 114.474 48.6552C114.428 48.5189 114.428 48.3812 114.428 48.2662C114.428 48.1512 114.428 48.0589 114.382 48.0135C114.338 48.0135 114.292 47.9677 114.246 47.9216C114.199 47.8751 114.153 47.8283 114.106 47.8283C114.106 47.8283 113.743 48.4714 113.835 48.84C113.921 49.2603 114.382 49.7099 114.382 49.7099ZM104.049 39.3877C105.391 39.4794 106.586 39.9295 107.69 40.5341H107.691V39.9286C106.402 39.2941 105.298 38.926 103.967 38.926V38.7431C104.564 38.6524 105.024 37.9181 105.206 37.3656C105.576 36.9999 105.851 36.5401 105.851 36.0813V35.8149C105.851 35.7925 105.859 35.762 105.868 35.7279C105.89 35.6456 105.917 35.542 105.851 35.4772C105.851 35.6776 105.689 35.7241 105.53 35.7696C105.483 35.7834 105.435 35.7971 105.392 35.8149C105.67 35.2017 105.851 34.2927 105.576 33.651C105.727 33.651 105.795 33.5948 105.856 33.5444C105.906 33.5032 105.952 33.4657 106.034 33.4657L106.587 32.9152C106.92 32.7493 106.952 32.4155 106.985 32.0581C107.007 31.8241 107.029 31.5801 107.138 31.3665C107.016 31.1737 106.911 30.9575 106.808 30.7453C106.68 30.4815 106.556 30.2236 106.402 30.0242C106.191 29.7603 105.888 29.7094 105.599 29.6609C105.386 29.6252 105.181 29.5907 105.025 29.4732C104.465 29.315 104.072 29.6493 103.756 29.9183C103.713 29.9553 103.671 29.9911 103.63 30.0242C103.552 30.0242 103.507 30.0724 103.475 30.1074C103.43 30.1548 103.409 30.178 103.358 30.0242C103.293 30.3281 103.188 30.5938 103.098 30.8193C103.055 30.9285 103.015 31.0283 102.985 31.1185C102.157 31.0273 101.422 31.1185 100.688 31.5373C100.563 31.3691 100.314 31.3143 99.9953 31.2445C99.8416 31.2108 99.672 31.1736 99.4929 31.1185C99.3053 31.1185 99.0308 31.1185 98.7587 31.0278C98.6778 30.895 98.6203 30.7553 98.5661 30.6237C98.4325 30.2992 98.3192 30.0242 97.9264 30.0242C97.7452 29.8404 97.7452 29.7501 97.7452 29.5658C97.68 29.5442 97.6101 29.5179 97.5367 29.4902C97.2951 29.3991 97.0145 29.2932 96.7302 29.2932C96.3692 29.1118 96.1268 29.2461 95.8744 29.386C95.7423 29.4593 95.6075 29.534 95.4514 29.5658C95.3712 29.7501 95.1203 29.8404 94.9516 29.8404C94.8147 30.1311 94.6983 30.3189 94.5768 30.5148C94.471 30.6853 94.3614 30.8621 94.231 31.1185C94.2972 31.4773 94.4079 31.7195 94.5313 31.9898C94.5845 32.1062 94.6401 32.2278 94.6955 32.3662C94.8671 32.7314 95.3716 33.1912 95.9062 33.4657C95.5355 33.9255 95.722 35.2943 95.9062 35.8149L95.5355 35.9896C95.5355 36.5401 96.0879 37.3656 96.6413 37.9181C96.7652 37.9181 96.8039 38.0467 96.8462 38.1869C96.8654 38.2507 96.8853 38.317 96.9144 38.3745V38.7436C95.722 38.5603 94.5113 39.0201 93.4973 39.5706C93.4973 39.5706 93.5892 39.9291 93.5892 40.1857C94.1392 39.7472 94.9512 39.3872 95.7216 39.2946C95.8434 39.2946 95.9655 39.2742 96.0877 39.2538C96.3323 39.2129 96.5771 39.172 96.8211 39.2946V39.9291C96.6225 40.0296 96.4116 40.1272 96.1944 40.2278C95.5066 40.5462 94.7562 40.8937 94.1387 41.4518V42.0935C94.1387 42.0935 95.9937 40.6229 97.1 40.2605L97.1103 40.276C97.2905 40.5444 97.4701 40.8121 97.7442 40.992C97.8708 40.9354 97.9953 40.8773 98.1193 40.8193C98.8035 40.4995 99.4739 40.1862 100.409 40.1862L100.502 39.2951C99.9496 39.0206 99.7664 38.7446 99.8602 38.1916C99.7679 38.1916 99.6762 38.2373 99.5841 38.2831C99.4914 38.3292 99.3984 38.3755 99.3044 38.3755C99.3044 38.3755 99.0303 38.1921 99.0303 38.1029C99.0303 38.0568 99.0247 38.0047 99.019 37.9526C99.002 37.7975 98.985 37.6421 99.1178 37.6421C99.4924 37.3671 99.9501 37.3671 100.595 37.3671C101.144 37.3671 102.341 37.3671 102.341 37.9195C102.341 38.1921 102.341 38.376 102.064 38.376H101.697C101.517 38.8367 101.237 39.1117 100.777 39.2956C100.777 39.2956 100.961 40.2615 101.237 40.2615C101.975 40.3488 102.712 40.8091 103.357 41.2675C103.412 41.0381 103.571 40.8806 103.703 40.75C103.781 40.6718 103.85 40.6032 103.882 40.5346C105.024 40.8091 106.034 41.7278 106.956 42.645V41.817C106.095 41.0478 105.159 40.5976 104.179 40.1262C104.108 40.0923 104.037 40.0583 103.966 40.0241C104.049 39.9295 104.049 39.6623 104.049 39.3877ZM110.966 46.4537L111.428 46.2737C110.966 46.1801 110.321 45.81 109.866 45.3483C109.866 45.3483 109.402 45.8105 109.036 45.8105C109.494 46.1801 109.953 46.4537 110.966 46.4537ZM108.448 44.2414C108.585 44.2245 108.721 44.2077 108.85 44.2077L107.967 43.3788C107.906 43.4396 107.846 43.5103 107.785 43.5811C107.662 43.7243 107.539 43.8678 107.413 43.9298C107.622 44.3435 108.036 44.2924 108.448 44.2414ZM115.84 53.7143C116.06 53.4052 116.312 53.0519 116.312 52.7404C116.312 52.6033 116.175 52.5804 116.038 52.5574C115.901 52.5344 115.763 52.5114 115.763 52.3732C115.969 52.0338 115.869 51.6402 115.804 51.3854C115.781 51.2975 115.763 51.2261 115.763 51.1791C115.763 50.7193 115.763 50.3555 115.671 49.9864C115.598 50.1331 115.452 50.2355 115.303 50.3403C115.076 50.4993 114.841 50.664 114.841 50.9972C114.841 51.0719 114.888 51.147 114.943 51.2353C115.023 51.3613 115.118 51.5142 115.118 51.7315C115.118 51.815 115.1 51.9342 115.08 52.0653C115.055 52.2253 115.027 52.403 115.027 52.5546C115.027 52.6678 115.163 52.6784 115.31 52.6899C115.405 52.6972 115.505 52.705 115.577 52.7404C115.764 52.7404 115.764 53.6605 115.577 54.1164C115.637 53.9986 115.735 53.8614 115.84 53.7143ZM113.966 52.606C114.083 52.3207 114.198 52.0396 114.198 51.7315C114.198 51.5985 114.049 51.5295 113.904 51.4629C113.748 51.391 113.599 51.322 113.649 51.1786C113.744 50.9967 113.744 50.7188 113.744 50.6295C113.744 50.0771 113.378 49.8026 113.378 49.8952C113.329 49.9718 113.267 50.0487 113.204 50.1278C113.042 50.3301 112.868 50.5471 112.868 50.8114C112.868 51.1786 113.378 51.4546 113.378 51.4546C113.485 51.6246 113.427 51.6901 113.366 51.7584C113.328 51.8011 113.289 51.845 113.289 51.9163C113.649 52.2782 113.743 52.7399 113.743 53.2924C113.783 53.0512 113.875 52.8273 113.966 52.606ZM105.853 44.9692C106.123 45.1462 106.382 45.3159 106.678 45.2576C106.565 45.1087 106.437 44.9899 106.325 44.886C106.162 44.7351 106.034 44.6155 106.034 44.4803C106.17 43.8766 105.766 43.7131 105.395 43.5627C105.257 43.5069 105.124 43.4529 105.024 43.3788C105.123 43.5283 105.168 43.7615 105.219 44.0238C105.261 44.2423 105.307 44.481 105.392 44.7085C105.554 44.7735 105.705 44.8724 105.853 44.9692ZM107.876 47.5552C108.24 47.8287 108.849 47.8287 109.219 47.8287C108.782 47.5794 108.486 47.2015 108.227 46.8703C108.106 46.7151 107.992 46.5702 107.876 46.4537C107.813 46.4848 107.718 46.5054 107.606 46.5297C107.388 46.5769 107.104 46.6383 106.861 46.8189C107.137 47.0973 107.321 47.2797 107.876 47.5552ZM93.2272 33.926L93.8651 33.7436H93.8656V32.6412C93.6808 32.8251 93.5786 33.0096 93.4764 33.1939C93.4261 33.2847 93.3758 33.3756 93.3156 33.4662L93.2272 33.926ZM105.522 46.467C105.54 46.4624 105.558 46.4579 105.575 46.4537C105.5 46.3416 105.363 46.2439 105.221 46.1426C105.016 45.9965 104.801 45.8428 104.745 45.6277C104.732 45.5646 104.72 45.4999 104.707 45.4339C104.628 45.0239 104.538 44.5627 104.387 44.1151C104.135 44.7085 103.881 45.4395 104.387 46.2737C104.555 46.7098 105.146 46.5612 105.522 46.467ZM102.156 43.1969C102.712 42.8273 102.891 42.0008 102.984 41.4518C102.892 41.4053 102.8 41.3821 102.709 41.3591C102.618 41.3362 102.528 41.3134 102.438 41.268C101.33 40.8096 99.4929 40.5355 98.0188 41.3606C98.0188 41.8175 98.1106 42.5547 98.4784 42.8283L98.9409 42.369C99.0313 42.369 99.0313 42.369 99.0313 42.5542V43.3793C99.3058 43.5626 99.4929 43.6529 99.8616 43.6529C99.8616 43.455 99.9564 43.3051 100.044 43.1672C100.077 43.1144 100.109 43.0634 100.135 43.0121C100.135 42.8273 100.135 42.6445 100.41 42.5538L100.503 42.6445C100.503 42.8273 100.503 43.1974 100.595 43.3788V43.6524C100.954 43.8333 101.316 43.6589 101.507 43.5671L101.517 43.5621C101.517 43.3486 101.579 43.1332 101.63 42.9547C101.666 42.8282 101.697 42.7203 101.697 42.6445C101.744 42.6445 101.744 42.5754 101.744 42.5062C101.744 42.4371 101.744 42.368 101.791 42.368C101.821 42.4141 101.852 42.4575 101.882 42.4997C102.03 42.7102 102.156 42.8886 102.156 43.1969ZM107.413 48.8405H107.69C107.413 48.6557 106.956 48.3831 106.678 48.2905L106.401 47.738C105.85 47.738 105.206 47.8287 104.745 48.014C104.786 48.0411 104.827 48.0684 104.867 48.0956C105.657 48.6231 106.451 49.1538 107.413 48.8405ZM93.5897 35.5698L94.0507 35.0135L93.3156 35.2953C93.0382 35.7392 92.9459 36.0822 92.854 36.4484L93.3156 37.919C93.3156 37.552 93.3876 37.2211 93.4597 36.8897C93.55 36.4745 93.6405 36.0585 93.5897 35.5698ZM103.01 46.6212C103.164 46.6823 103.318 46.7437 103.445 46.8189C103.166 46.2737 103.074 45.81 102.984 45.1732C102.937 45.2181 102.884 45.2576 102.827 45.2992C102.665 45.4194 102.477 45.5578 102.341 45.8993C102.207 46.3013 102.606 46.46 103.01 46.6212ZM111.794 56.1506H111.885C111.885 55.6758 111.885 54.9415 111.794 54.1164C111.853 53.8231 111.571 53.5283 111.289 53.233C111.132 53.0689 110.975 52.9047 110.876 52.7404V53.0164C110.929 53.2566 111.013 53.4973 111.1 53.7427C111.309 54.3387 111.527 54.9626 111.332 55.6758C111.486 55.6758 111.576 55.8144 111.71 56.0233C111.736 56.0633 111.764 56.1059 111.794 56.1506ZM108.668 52.2787C108.944 52.7404 109.309 52.7404 109.771 52.7404C109.719 52.6537 109.67 52.564 109.621 52.4737C109.408 52.0828 109.189 51.6795 108.668 51.4546C108.498 51.4546 108.24 51.4546 107.967 51.3619C107.653 50.9969 107.37 51.225 107.082 51.4567C106.863 51.6332 106.641 51.8116 106.401 51.7315C106.034 51.9163 105.85 52.1894 105.85 52.4654V52.5546C106.314 52.4654 106.587 52.2782 106.862 52.0056C107.101 51.9671 107.324 52.0653 107.536 52.159C107.814 52.2814 108.074 52.3962 108.332 52.1894C108.39 52.0706 108.476 52.1432 108.553 52.209C108.596 52.2448 108.636 52.2787 108.668 52.2787ZM100.687 47.0973C101.33 46.8189 101.421 45.9919 101.421 45.3478C101.064 45.7957 100.794 45.9804 100.528 46.1626L100.503 46.1801L100.687 47.0973ZM103.445 49.7099C103.797 49.7099 104.301 49.5261 104.472 49.3514C104.404 49.2794 104.316 49.1814 104.22 49.0732C103.962 48.784 103.64 48.4224 103.445 48.29L101.975 48.0135C102.015 48.067 102.054 48.1192 102.092 48.1704C102.579 48.8217 102.931 49.293 103.445 49.7099ZM109.5 54.347C109.658 54.4112 109.819 54.4763 109.953 54.5796L109.865 53.84C109.193 53.0914 108.174 53.0997 107.235 53.1075C107.141 53.1082 107.047 53.109 106.955 53.109V53.0164C106.677 53.0164 106.401 53.0164 106.033 53.109C105.957 53.109 105.866 53.1403 105.759 53.177C105.607 53.2292 105.422 53.2924 105.205 53.2924L104.745 54.3939C105.162 53.976 105.578 53.8734 105.995 53.7709C106.13 53.7376 106.266 53.7042 106.401 53.66C106.505 53.7111 106.521 53.7617 106.531 53.7961C106.54 53.8229 106.545 53.84 106.586 53.84C106.956 53.84 107.413 53.84 107.783 53.7507C108.24 53.7507 108.498 53.7507 108.85 53.84C108.967 54.1301 109.23 54.2372 109.5 54.347ZM98.4774 45.2576C98.4774 45.81 98.9399 46.2737 99.4919 46.8189C99.4919 46.5344 99.441 46.2965 99.3922 46.0685C99.3475 45.8596 99.3046 45.6591 99.3044 45.439C99.0303 45.2576 98.7577 45.2576 98.4774 45.2576ZM97.4654 45.3478L97.7447 44.2077L96.8216 43.6529C96.9053 44.2343 97.1399 44.7005 97.3856 45.1888C97.4121 45.2415 97.4388 45.2944 97.4654 45.3478ZM110.506 57.5112C110.594 57.1474 110.782 56.6147 110.875 56.4237C110.875 56.2246 110.679 56.1707 110.501 56.1217C110.434 56.1034 110.37 56.0859 110.32 56.0618C110.32 55.6758 110.137 55.4051 109.771 55.2199C109.588 55.1511 109.414 55.0772 109.243 55.0049C108.724 54.785 108.24 54.5801 107.689 54.5801L106.955 54.6694C106.833 54.6986 106.712 54.7086 106.591 54.7186C106.344 54.7389 106.097 54.7591 105.849 54.942L105.391 55.6758C105.62 55.5402 105.873 55.5402 106.125 55.5402C106.378 55.5402 106.631 55.5402 106.861 55.4047C107.024 55.2954 107.09 55.4101 107.155 55.5221C107.201 55.5996 107.245 55.6758 107.32 55.6758C107.457 55.7492 107.557 55.8982 107.656 56.0465C107.822 56.2961 107.987 56.5435 108.331 56.4237C108.876 56.5934 108.861 57.3234 108.851 57.8045C108.85 57.8636 108.849 57.919 108.849 57.9691L109.401 57.6931C109.362 57.617 109.372 57.5091 109.383 57.3887C109.399 57.2212 109.416 57.0295 109.309 56.8656C109.184 56.5638 109.015 56.4681 108.808 56.3509C108.712 56.2965 108.608 56.2375 108.497 56.1511C108.718 55.8532 108.596 55.7422 108.453 55.6107C108.367 55.5326 108.274 55.4472 108.239 55.3111L108.943 55.4051C109.309 55.6763 109.401 55.7839 109.493 56.1511C110.07 56.1511 110.277 56.7986 110.447 57.331C110.467 57.393 110.486 57.4535 110.506 57.5112ZM103.445 52.1894H103.629L103.166 51.1786H102.437C102.437 51.1786 102.437 51.4551 102.525 51.7315C102.712 51.9168 103.356 52.1894 103.445 52.1894ZM95.1198 44.4808C95.3712 44.8924 95.9941 45.4395 96.5495 45.6277C96.4706 45.0094 96.1318 44.6197 95.7533 44.1844C95.6816 44.1019 95.6085 44.0179 95.5355 43.9303V43.8376C95.4514 43.6529 95.203 43.3793 94.8666 43.3793C94.8666 43.6529 94.9512 44.1156 95.1198 44.4808ZM100.495 49.7003C100.742 49.3936 100.898 49.2005 100.96 48.8405C100.595 48.8405 100.41 48.8405 99.9496 49.0866C99.8838 49.2817 99.6673 49.5773 99.4827 49.8293C99.4163 49.9199 99.354 50.0049 99.3044 50.0776C99.2237 50.1975 99.1273 50.2823 99.0367 50.362C98.9174 50.467 98.808 50.5632 98.7578 50.7193C99.0291 50.5828 99.3028 50.4921 99.5431 50.4126C99.7869 50.3319 99.9962 50.2626 100.134 50.1683C100.27 49.9783 100.39 49.8292 100.495 49.7003ZM107.413 57.9691L107.69 57.6931C107.783 57.5112 107.69 57.1474 107.601 56.8661C107.507 56.7404 107.391 56.7404 107.276 56.7404C107.161 56.7404 107.047 56.7404 106.956 56.6147C106.956 56.4743 106.855 56.3881 106.729 56.28C106.684 56.241 106.635 56.1993 106.586 56.1511C106.401 56.0618 106.22 56.1511 106.22 56.1511L105.85 56.333C105.901 56.3585 105.968 56.4118 106.046 56.4753C106.247 56.6374 106.531 56.8656 106.861 56.8656C107.129 56.9196 107.179 57.1921 107.228 57.4645C107.263 57.6593 107.298 57.854 107.413 57.9691ZM98.2039 49.3514C98.7582 49.1696 99.0308 48.6557 99.3049 48.1047H98.5702L97.839 48.84C97.6375 48.9729 97.4651 49.0583 97.3054 49.1375C97.1693 49.2049 97.0425 49.2678 96.9149 49.3514C97.3072 49.4758 97.6538 49.4231 97.921 49.3824C98.029 49.3659 98.124 49.3514 98.2039 49.3514ZM100.042 52.4659C100.503 52.5546 100.777 52.5546 101.144 52.2787L100.872 51.732H99.4919L100.042 52.4659ZM94.0775 45.7272C94.2161 45.6152 94.3637 45.4959 94.5113 45.3478C94.3415 45.3066 94.2116 45.2843 94.0942 45.264C93.9543 45.2399 93.8321 45.2188 93.681 45.1727C93.668 45.1847 93.6514 45.1987 93.6322 45.2149C93.5157 45.3129 93.3031 45.4916 93.2272 45.81C93.3151 45.9919 93.4055 46.2737 93.4055 46.5453C93.5306 46.1693 93.7837 45.9647 94.0775 45.7272ZM94.9516 48.014C95.3712 47.5547 95.5355 47.0968 95.5355 46.7306C95.4085 46.5874 95.2296 46.6655 95.038 46.7492C94.9816 46.7738 94.9241 46.7988 94.8666 46.8189C94.8666 47.0388 94.8066 47.2582 94.7438 47.4876C94.6751 47.7387 94.6032 48.0017 94.6032 48.2905C94.6032 48.2905 94.8666 48.1047 94.9516 48.014ZM96.4557 49.1696L96.8216 47.8287C96.7531 47.8287 96.6973 47.8156 96.6494 47.8044C96.5712 47.786 96.5138 47.7725 96.4557 47.8287C96.0879 48.3826 95.5355 49.1696 94.8666 49.3514C94.9886 49.3514 95.1175 49.3617 95.2493 49.3721C95.6629 49.4049 96.1057 49.4399 96.4557 49.1696ZM97.1923 53.8405C97.1923 53.8405 97.2841 52.7404 97.2841 52.4659C97.1898 52.4181 97.0464 52.37 96.9047 52.3225C96.7704 52.2775 96.6377 52.2331 96.55 52.1899V51.9173C96.4563 51.7336 95.9997 51.4589 95.5438 51.1846L95.5355 51.1796C95.4116 50.8328 94.9444 50.8003 94.4459 50.7655C94.2833 50.7541 94.1173 50.7425 93.9589 50.7198L93.3151 51.4556V51.732C93.681 51.4555 94.1392 51.4556 94.5113 51.4556C94.689 51.5938 94.8411 51.5938 94.9802 51.5938C95.1193 51.5938 95.2455 51.5938 95.3711 51.732C95.4508 52.0041 95.7181 52.2752 95.9882 52.5491L95.9941 52.5551C96.55 52.5551 97.0086 53.2007 97.1923 53.8405ZM96.1802 55.8727L96.8216 55.3106C96.7634 55.1915 96.7428 55.0539 96.723 54.9221C96.6815 54.6453 96.6438 54.394 96.2706 54.3934C96.0884 54.2993 95.9946 54.1155 95.9946 53.8395C95.9521 53.8113 95.9076 53.783 95.8612 53.7534C95.6111 53.5939 95.306 53.3993 94.9521 53.0159C94.8522 52.9798 94.7634 52.9019 94.6702 52.8202C94.524 52.6919 94.367 52.5542 94.1397 52.5542C93.9594 52.2782 93.5897 52.2782 93.3156 52.2782C92.8906 52.2782 92.792 52.5505 92.6857 52.8441C92.6536 52.9328 92.6208 53.0234 92.5781 53.109V53.2924C92.728 53.2622 92.8585 53.2224 92.979 53.1856C93.2284 53.1095 93.4348 53.0466 93.6815 53.109C93.9305 53.3527 94.2207 53.5592 94.4922 53.7524C94.6238 53.8461 94.7511 53.9366 94.8671 54.0267C94.8671 54.0267 95.9062 54.3939 95.9946 54.5796C96.0448 54.6274 96.0159 54.675 95.9782 54.7372C95.9455 54.7912 95.9062 54.8561 95.9062 54.9415C96.0565 55.0939 96.0684 55.3001 96.0792 55.4877C96.0881 55.642 96.0962 55.7838 96.1802 55.8727ZM95.203 57.5107L95.4514 56.6142L95.3711 55.8717L94.5113 55.6749C94.2821 55.3762 94.3037 55.2608 94.3192 55.178C94.3226 55.1595 94.3257 55.1427 94.3257 55.1258C94.3257 54.7688 94.0513 54.6448 93.784 54.5239C93.6416 54.4595 93.5013 54.3961 93.4055 54.2988L92.8536 54.0262H92.3045C92.0266 54.2993 92.0266 54.5791 92.0266 54.7572C92.119 54.8494 92.1651 54.8266 92.2344 54.7923C92.3031 54.7582 92.3948 54.7127 92.5776 54.7572C92.7697 54.9113 93.0258 55.0172 93.3127 55.1358C93.713 55.3014 94.1733 55.4917 94.6032 55.8722L95.203 57.5107ZM91.7506 59.2525C91.7506 59.2525 92.9454 58.2436 92.9454 57.5112C92.9454 56.9583 92.3949 56.6142 92.0266 56.4246L92.3949 55.8736L91.9333 55.7844C91.8767 55.7935 91.8219 55.8018 91.7687 55.8098C91.3074 55.879 90.9674 55.9301 90.5544 56.4242C90.0044 57.0514 89.9126 58.6132 89.9126 59.5308C89.9126 59.5308 89.9126 59.6216 90.0044 59.6216C90.0608 59.2762 90.2986 58.931 90.5365 58.5858C90.6782 58.3803 90.8198 58.1747 90.9232 57.9691C90.9409 57.9159 90.9552 57.8662 90.9687 57.8193C91.0252 57.6228 91.0676 57.475 91.2881 57.3235C91.6564 57.3235 92.0261 57.6931 92.0261 57.6931C92.0261 57.9809 91.9507 58.2695 91.8788 58.5447C91.8132 58.7954 91.7506 59.0349 91.7506 59.2525ZM89.4544 57.9691C89.6337 57.6926 89.7241 57.3235 89.7241 56.9583C89.7241 56.5466 89.4056 56.4373 89.1521 56.3503C89.1346 56.3443 89.1174 56.3384 89.1006 56.3325C89.1006 56.0618 89.1006 55.6758 89.5424 55.6758H88.5656C88.414 55.7857 88.2883 55.9775 88.1591 56.1745C88.0569 56.3305 87.9525 56.4898 87.8314 56.6142C87.6478 57.1474 87.554 57.7852 87.554 58.4289C87.554 58.796 87.554 59.4377 87.7415 59.8049L87.7666 59.7923C88.1147 59.6172 88.3003 59.5239 88.5656 59.2525C88.1997 58.1529 88.294 57.8764 88.6574 57.1474C89.1001 57.1474 89.3602 57.6033 89.4544 57.9691ZM87.2044 57.884C87.2796 57.9315 87.3391 57.9691 87.3737 57.9691C87.554 57.5112 87.3737 56.9583 86.8232 56.6147L86.0543 57.6038V59.071C86.1374 59.4377 86.4675 59.8049 86.6357 59.8049C86.6357 59.8049 86.729 59.5304 86.729 59.2525C86.729 59.0239 86.6956 58.8299 86.6646 58.6498C86.6089 58.3258 86.5609 58.0469 86.729 57.6931C86.9019 57.6931 87.076 57.8029 87.2044 57.884ZM106.033 30.9346C106.401 31.3669 106.401 32.1814 106.22 32.6412C106.127 32.7784 106.034 32.7784 105.931 32.7784C105.827 32.7784 105.713 32.7784 105.575 32.9157H105.297C105.023 32.3666 104.387 31.6323 103.797 31.3669C103.797 30.9346 103.966 30.568 104.301 30.3846L104.933 30.0247C105.083 30.1421 105.232 30.2409 105.372 30.3333C105.661 30.524 105.91 30.6879 106.033 30.9346ZM102.984 32.9157C103.075 32.9157 103.166 32.9157 103.166 33.1917H102.341C102.172 33.1485 102.12 32.9891 102.067 32.8298C102.006 32.6435 101.944 32.4574 101.697 32.4574C101.587 32.4574 101.544 32.4574 101.527 32.4365C101.517 32.4233 101.517 32.4018 101.517 32.3666C101.704 32.2399 101.849 32.2866 101.981 32.3287C102.041 32.3482 102.099 32.3666 102.156 32.3666C102.343 32.2726 102.435 32.4155 102.541 32.579C102.643 32.7376 102.758 32.9157 102.984 32.9157ZM104.563 34.2025C104.745 34.2932 104.563 34.2932 104.563 34.2932C104.472 34.4736 104.301 34.4736 104.134 34.4722C104.046 34.4722 104.004 34.5951 103.96 34.7255C103.92 34.8434 103.878 34.9674 103.797 35.0121C103.515 35.2381 103.22 35.2232 102.928 35.2085C102.856 35.2049 102.784 35.2012 102.712 35.2012C102.525 35.0126 102.437 34.9185 102.437 34.8495L102.341 34.9185C102.437 35.2948 102.437 35.8149 102.437 36.3553L102.984 36.5406C102.984 37.0404 103.282 37.137 103.593 37.2374C103.795 37.3029 104.002 37.37 104.135 37.5514L104.129 37.5694C104.045 37.8388 103.963 38.1039 103.798 38.1912C103.565 38.011 103.324 37.9097 103.083 37.8082C102.959 37.7561 102.835 37.704 102.712 37.6411C102.712 37.0911 102.342 36.9078 101.975 36.8151C101.975 35.9901 101.975 35.2022 101.791 34.4732H101.975C101.975 34.3255 102.113 34.2584 102.267 34.1831C102.396 34.1203 102.537 34.0517 102.619 33.926L104.563 34.2025ZM99.2127 32.4818C99.5025 32.3691 99.8951 32.2166 100.042 32.3666L100.022 32.3872C99.8344 32.5763 99.4885 32.9257 99.3981 33.1917H98.3895C98.3895 32.9157 98.664 32.6407 99.0303 32.55C99.0825 32.5324 99.1448 32.5082 99.2127 32.4818ZM96.9762 30.3039C97.4373 30.5105 97.9539 30.7421 98.0183 31.3669C97.5601 31.5377 96.6413 32.1814 96.2706 32.4574C96.1092 32.2136 95.9145 32.1857 95.7258 32.1587C95.4883 32.1247 95.2603 32.092 95.1203 31.6323C95.2034 31.0282 95.3716 30.292 96.0884 30.0247H96.4562C96.5933 30.1322 96.7797 30.2158 96.9762 30.3039ZM103.445 39.2951V39.7477L102.437 39.3877L102.525 39.2951H103.445ZM98.8467 33.9265C99.1178 34.1103 99.3049 34.2937 99.3049 34.4736C99.3049 34.8832 99.2367 35.2841 99.1684 35.6855C99.0996 36.0896 99.0308 36.4942 99.0313 36.9087C98.6649 37.0921 98.3904 37.3671 98.3904 37.6421C97.9269 37.8274 97.7457 37.9195 97.4663 38.1029C97.2783 37.9131 97.3492 37.6355 97.4116 37.3914C97.4399 37.281 97.4663 37.1775 97.4663 37.0921C97.6089 37.0066 97.7602 36.9565 97.9039 36.9089C98.2245 36.8026 98.5073 36.7089 98.5707 36.2641C98.6649 35.8159 98.6649 35.5698 98.6649 35.0135C98.6237 34.9421 98.5828 34.9695 98.5268 35.007C98.455 35.0551 98.3584 35.1198 98.2043 35.0135C97.9269 35.2027 97.8394 35.2027 97.5611 35.0135C97.5396 34.9924 97.5091 34.9724 97.4748 34.95C97.3567 34.8728 97.1928 34.7656 97.1928 34.4736C96.9149 34.4736 96.6418 34.2937 96.6418 33.9265H96.8221H98.8467ZM98.0516 39.1429C98.2795 39.1136 98.4689 39.0892 98.5697 39.2951C98.4779 39.2951 98.0183 39.3877 97.7447 39.6623C97.4654 39.4794 97.4654 39.2951 97.4654 39.1113C97.6684 39.1923 97.872 39.1661 98.0516 39.1429ZM76.3087 58.2463V51.7347C76.3087 51.6515 76.3086 51.5701 76.3085 51.4902C76.3058 48.9714 76.3049 48.1079 79.0834 48.1079V47.1H67.5375V48.1079C70.6486 48.1079 70.9937 48.9359 70.9937 51.0892V57.7884C69.1924 58.6159 67.7202 58.9831 66.1103 58.9831C60.6444 58.9831 56.5522 54.3975 56.5522 47.652C56.5522 40.8118 59.9059 36.2673 65.6535 36.2673C68.3654 36.2673 70.7385 37.1865 72.4552 38.9306C73.5591 39.9327 74.3861 41.3628 74.838 43.106H75.9433L75.1139 34.2969H74.2019C74.1096 34.9227 73.9303 35.9938 73.2846 35.9938C72.8033 35.9938 72.3263 35.8134 71.7244 35.5858C71.407 35.4658 71.0549 35.3326 70.6491 35.2059C69.0101 34.666 67.4461 34.2969 65.3766 34.2969C57.0109 34.2969 50.4344 40.6266 50.4344 48.2937C50.4344 55.4079 56.1815 61.0032 65.7444 61.0032C69.1919 61.0032 72.6403 60.0846 76.3087 58.2463ZM44.5085 60.5463V40.9952C44.5085 37.2805 44.6897 35.8186 48.0831 35.8186V34.8537H38.8914V35.8186C42.2601 35.8186 42.2591 37.291 42.2568 40.7208C42.2568 40.8109 42.2567 40.9024 42.2567 40.9952V49.9896C42.2567 50.6332 42.2567 50.9078 42.3486 51.3656L26.2416 34.8537H17.569V35.8186C21.2373 35.8186 21.2373 38.1056 21.2373 40.1894V54.2137C21.2373 57.6958 21.2373 59.3478 17.7531 59.3478V60.3576H26.9468V59.3478C23.4993 59.3478 23.4993 57.9718 23.4993 54.2137V41.9119V41.9118C23.4993 41.3623 23.4993 40.9035 23.4074 40.3511L42.9933 60.5463H44.5085ZM0 59.3478V60.3576H12.9495V59.3478C10.5759 59.3478 9.1941 59.1645 9.1941 55.9724V39.2052C9.1941 35.9006 10.2965 35.8186 12.9495 35.8186V34.8537H0V35.8186C2.57655 35.8186 3.77324 35.9006 3.77324 39.2052V55.9724C3.77324 59.1645 2.20923 59.3478 0 59.3478Z" fill="#48545D"/>
</svg>
