<svg width="83" height="88" viewBox="0 0 83 88" fill="none" xmlns="http://www.w3.org/2000/svg">
<rect y="12" width="83" height="63.6712" fill="transparent"/>
<path d="M41.6339 17.446C41.3113 17.7038 40.9956 17.9693 40.6869 18.2419C35.4118 22.9039 32.0737 29.7667 32.0737 37.4253C32.0737 45.0847 35.4118 51.9475 40.6869 56.6088C40.9956 56.8821 41.3113 57.1476 41.6339 57.4054C41.9565 57.1476 42.2722 56.8821 42.5809 56.6088C47.8554 51.9475 51.1942 45.0847 51.1942 37.4253C51.1942 29.7667 47.8554 22.9039 42.5809 18.2419C42.2722 17.9693 41.9565 17.7038 41.6339 17.446ZM57.1034 12.0007C51.9785 12.0007 47.2143 13.5658 43.247 16.2496C43.4493 16.4191 43.6551 16.585 43.8519 16.7588C49.7487 21.9696 53.1305 29.5025 53.1305 37.4253C53.1305 45.3482 49.7487 52.8811 43.8526 58.0926C43.6565 58.2657 43.45 58.4323 43.247 58.6018C47.2143 61.2856 51.9785 62.8507 57.1034 62.8507C70.9272 62.8507 82.1339 51.4679 82.1339 37.4261C82.1339 23.3835 70.9272 12.0007 57.1034 12.0007ZM39.4159 58.0926C39.6113 58.2657 39.8178 58.4323 40.0208 58.6018C36.0528 61.2856 31.2887 62.8507 26.1644 62.8507C12.3399 62.8507 1.13391 51.4672 1.13391 37.4253C1.13391 23.3835 12.3399 12 26.1644 12C31.2887 12 36.0528 13.5658 40.0208 16.2496C39.8178 16.4184 39.612 16.5843 39.4159 16.7581C33.5185 21.9696 30.1373 29.5025 30.1373 37.4253C30.1373 45.3489 33.5185 52.8818 39.4159 58.0926ZM81.3496 53.1806V52.1939H81.0965L80.8045 52.8727L80.5118 52.1939H80.2587V53.1806H80.4381V52.4362L80.7113 53.0782H80.897L81.1709 52.4348V53.1806H81.3496ZM79.7435 53.1806V52.362H80.0682V52.1954H79.2408V52.362H79.5655V53.1806H79.7435ZM80.5257 75.1311V75.2971H80.6752C80.7107 75.2971 80.7385 75.2901 80.7586 75.2766C80.7788 75.2632 80.7892 75.242 80.7892 75.2131C80.7892 75.1855 80.7788 75.165 80.7586 75.1516C80.7385 75.1382 80.7107 75.1311 80.6752 75.1311H80.5257ZM80.678 75.0146C80.7565 75.0146 80.817 75.0323 80.8594 75.0676C80.9025 75.1036 80.9241 75.1516 80.9241 75.2131C80.9241 75.2646 80.906 75.3077 80.8727 75.3409C80.8386 75.3741 80.7906 75.3946 80.728 75.4023L80.929 75.6375H80.7711L80.5855 75.4038H80.5257V75.6375H80.3936V75.0146H80.678ZM80.639 75.8515C80.71 75.8515 80.7767 75.8374 80.8372 75.8106C80.8998 75.783 80.9526 75.7456 80.9999 75.6983C81.0465 75.6517 81.0826 75.5959 81.1084 75.5323C81.1355 75.4687 81.1487 75.4009 81.1487 75.3282C81.1487 75.2561 81.1355 75.1884 81.1084 75.1248C81.0826 75.0612 81.0465 75.0054 80.9999 74.9581C80.9526 74.9115 80.8998 74.8741 80.8372 74.8472C80.7767 74.8204 80.71 74.807 80.639 74.807C80.5667 74.807 80.4986 74.8204 80.4353 74.8472C80.3727 74.8741 80.3171 74.9115 80.2705 74.9581C80.2253 75.0054 80.1885 75.0612 80.1614 75.1248C80.1357 75.1884 80.1224 75.2561 80.1224 75.3282C80.1224 75.4009 80.1357 75.4687 80.1614 75.5323C80.1885 75.5959 80.2253 75.6517 80.2705 75.6983C80.3171 75.7456 80.3727 75.783 80.4353 75.8106C80.4986 75.8374 80.5667 75.8515 80.639 75.8515ZM80.639 74.6572C80.7308 74.6572 80.8191 74.6749 80.9005 74.7102C80.9818 74.7448 81.0527 74.7928 81.1139 74.8543C81.1751 74.915 81.2231 74.9864 81.2585 75.0676C81.2926 75.1495 81.3107 75.2364 81.3107 75.3282C81.3107 75.4207 81.2926 75.5069 81.2585 75.5881C81.2231 75.6693 81.1751 75.7406 81.1139 75.8014C81.0527 75.8621 80.9818 75.9101 80.9005 75.9462C80.8191 75.9815 80.7308 75.9991 80.639 75.9991C80.5438 75.9991 80.4548 75.9815 80.3727 75.9462C80.29 75.9101 80.2184 75.8621 80.1579 75.8014C80.0967 75.7406 80.0501 75.6693 80.0147 75.5881C79.9799 75.5069 79.9618 75.4207 79.9618 75.3282C79.9618 75.2364 79.9799 75.1495 80.0147 75.0676C80.0501 74.9864 80.0967 74.915 80.1579 74.8543C80.2184 74.7928 80.29 74.7448 80.3727 74.7102C80.4548 74.6749 80.5438 74.6572 80.639 74.6572ZM18.6358 72.2602C18.6358 71.0744 19.4006 70.0997 20.6521 70.0997C21.848 70.0997 22.6539 71.032 22.6539 72.2602C22.6539 73.4891 21.848 74.4214 20.6521 74.4214C19.4006 74.4214 18.6358 73.4467 18.6358 72.2602ZM24.0166 75.6361V68.885H22.5704V69.7042C22.1122 69.0969 21.4169 68.7155 20.4713 68.7155C18.608 68.7155 17.1485 70.1986 17.1485 72.2602C17.1485 74.3225 18.608 75.8056 20.4713 75.8056C21.4169 75.8056 22.1122 75.4242 22.5704 74.8169V75.6361H24.0166ZM72.8476 72.2602C72.8476 71.0744 73.6124 70.0997 74.864 70.0997C76.0592 70.0997 76.8657 71.032 76.8657 72.2602C76.8657 73.4891 76.0592 74.4214 74.864 74.4214C73.6124 74.4214 72.8476 73.4467 72.8476 72.2602ZM78.2285 75.6361V66.1736H76.7823V69.7042C76.3234 69.0969 75.6281 68.7155 74.6832 68.7155C72.8198 68.7155 71.3597 70.1986 71.3597 72.2602C71.3597 74.3225 72.8198 75.8056 74.6832 75.8056C75.6281 75.8056 76.3234 75.4242 76.7823 74.8169V75.6361H78.2285ZM41.9531 70.0291C42.8847 70.0291 43.482 70.6224 43.635 71.6676H40.187C40.34 70.693 40.924 70.0291 41.9531 70.0291ZM41.9809 68.7155C40.034 68.7155 38.6713 70.1562 38.6713 72.2602C38.6713 74.4072 40.0897 75.8056 42.0782 75.8056C43.0794 75.8056 43.9965 75.5507 44.803 74.8592L44.0939 73.7716C43.5376 74.2236 42.8291 74.4779 42.1616 74.4779C41.2299 74.4779 40.3817 74.04 40.1731 72.8252H45.109C45.1229 72.6416 45.1368 72.458 45.1368 72.2602C45.1229 70.1562 43.8435 68.7155 41.9809 68.7155ZM59.4299 72.2602C59.4299 71.0744 60.1947 70.0997 61.4462 70.0997C62.6421 70.0997 63.4487 71.032 63.4487 72.2602C63.4487 73.4891 62.6421 74.4214 61.4462 74.4214C60.1947 74.4214 59.4299 73.4467 59.4299 72.2602ZM64.8114 75.6361V68.885H63.3652V69.7042C62.9063 69.0969 62.211 68.7155 61.2655 68.7155C59.4021 68.7155 57.9427 70.1986 57.9427 72.2602C57.9427 74.3225 59.4021 75.8056 61.2655 75.8056C62.211 75.8056 62.9063 75.4242 63.3652 74.8169V75.6361H64.8114ZM51.2686 72.2602C51.2686 74.3083 52.673 75.8056 54.8138 75.8056C55.8151 75.8056 56.4825 75.5796 57.2056 75.0005L56.5104 73.814C55.968 74.2095 55.3979 74.4214 54.7721 74.4214C53.6179 74.4072 52.7704 73.5597 52.7704 72.2602C52.7704 70.9614 53.6179 70.1139 54.7721 70.0997C55.3979 70.0997 55.968 70.3116 56.5104 70.7071L57.2056 69.5206C56.4825 68.9415 55.8151 68.7155 54.8138 68.7155C52.673 68.7155 51.2686 70.2127 51.2686 72.2602ZM69.9003 68.7155C69.0659 68.7155 68.5236 69.111 68.1481 69.7042V68.885H66.7158V75.6361H68.162V71.8513C68.162 70.7354 68.6348 70.1139 69.5804 70.1139C69.8725 70.1139 70.1784 70.1562 70.4843 70.2834L70.9293 68.8991C70.6088 68.772 70.1916 68.7155 69.9003 68.7155ZM31.1635 69.4217C30.4682 68.9556 29.5087 68.7155 28.4519 68.7155C26.77 68.7155 25.6853 69.5347 25.6853 70.8766C25.6853 71.9777 26.4919 72.6557 27.9791 72.8676L28.6605 72.9665C29.4531 73.0795 29.8286 73.2913 29.8286 73.6727C29.8286 74.1954 29.3001 74.492 28.3128 74.492C27.3123 74.492 26.5892 74.1671 26.1025 73.7857L25.4211 74.9299C26.2137 75.5224 27.215 75.8056 28.2989 75.8056C30.2179 75.8056 31.3304 74.8875 31.3304 73.6021C31.3304 72.4156 30.4543 71.7948 29.0081 71.5829L28.3267 71.484C27.701 71.3993 27.2011 71.2721 27.2011 70.8201C27.2011 70.3258 27.6732 70.0291 28.4658 70.0291C29.3141 70.0291 30.1345 70.354 30.5378 70.6083L31.1635 69.4217ZM49.8084 68.7155C48.9741 68.7155 48.4318 69.111 48.057 69.7042V68.885H46.6247V75.6361H48.0702V71.8513C48.0702 70.7354 48.543 70.1139 49.4886 70.1139C49.7806 70.1139 50.0866 70.1562 50.3925 70.2834L50.8375 68.8991C50.5176 68.772 50.1005 68.7155 49.8084 68.7155ZM37.4761 68.885H35.1121V66.8375H33.652V68.885H32.3038V70.2269H33.652V73.3055C33.652 74.8734 34.2499 75.8056 35.9603 75.8056C36.5861 75.8056 37.3092 75.6072 37.7674 75.283L37.3509 74.0258C36.9198 74.2801 36.447 74.4072 36.0716 74.4072C35.3485 74.4072 35.1121 73.9552 35.1121 73.2772V70.2269H37.4761V68.885ZM15.8692 75.6361V71.3993C15.8692 69.8031 14.868 68.7296 13.2549 68.7155C12.4074 68.7014 11.5313 68.9697 10.9194 69.9161C10.4605 69.1675 9.73744 68.7155 8.72232 68.7155C8.01312 68.7155 7.31852 68.9274 6.7762 69.7184V68.885H5.32999V75.6361H6.7901V71.8936C6.7901 70.7213 7.42977 70.0997 8.41639 70.0997C9.37589 70.0997 9.86259 70.7354 9.86259 71.8795V75.6361H11.3227V71.8936C11.3227 70.7213 11.9902 70.0997 12.949 70.0997C13.9363 70.0997 14.4091 70.7354 14.4091 71.8795V75.6361H15.8692Z" fill="#48545D"/>
</svg>
