<svg width="174" height="88" viewBox="0 0 174 88" fill="none" xmlns="http://www.w3.org/2000/svg">
<rect width="174" height="88" fill="transparent"/>
<path fill-rule="evenodd" clip-rule="evenodd" d="M19.9307 24C8.91089 24 0 32.9419 0 44C0 55.0581 8.91089 64 19.9307 64C30.9505 64 39.8614 55.0581 39.8614 44C39.8614 33.0015 31.0693 24 19.9307 24ZM25.8714 28.918L19.9605 48.5901L19.9307 48.6199L19.8713 48.5901L13.9604 28.918L6.32678 54.1043H7.75252C7.75252 54.1043 8.70302 49.7228 10.2773 47.0998C11.1387 45.6691 12.4456 44.5066 14.1981 44.5365C15.4456 44.5663 16.5149 45.2518 17.8515 47.1296C18.1015 47.4807 18.3935 48.0218 18.6921 48.5752L18.6922 48.5754C18.7485 48.6796 18.805 48.7842 18.8614 48.8882C19.4258 49.991 19.901 51.1236 19.901 51.1236C19.901 51.1236 21.1486 48.2622 21.9505 47.1296C23.2872 45.2518 24.3565 44.5663 25.604 44.5365C27.3565 44.5066 28.6931 45.6691 29.5248 47.0998C31.0991 49.7228 32.0496 54.1043 32.0496 54.1043H33.4753L25.8714 28.918ZM154.277 30.3516H150.98V52.0505H154.277V30.3516ZM99.8615 49.4854H100.574V52.7939H99.8615C96.0892 52.7939 93.0001 49.694 93.0001 45.9086V30.7969H96.2971V35.2082H100.545V38.5167H96.2971V45.9384C96.2971 47.8759 97.9011 49.4854 99.8615 49.4854ZM110.584 49.0375C107.554 49.0375 105.089 46.5636 105.089 43.5233C105.089 40.4831 107.554 38.0092 110.584 38.0092C113.614 38.0092 116.079 40.4831 116.079 43.5233C116.079 46.5933 113.584 49.0375 110.584 49.0375ZM110.584 34.7305C105.743 34.7305 101.822 38.6649 101.822 43.5233C101.822 48.3817 105.743 52.3162 110.584 52.3162C115.426 52.3162 119.347 48.3817 119.347 43.5233C119.347 38.6947 115.426 34.7305 110.584 34.7305ZM134.525 43.5233C134.525 46.5636 136.99 49.0375 140.02 49.0375C143.02 49.0375 145.485 46.5933 145.515 43.5233C145.515 40.4831 143.05 38.0092 140.02 38.0092C136.99 38.0092 134.525 40.4831 134.525 43.5233ZM131.257 43.5233C131.257 38.6649 135.178 34.7305 140.02 34.7305C144.861 34.7305 148.782 38.6947 148.782 43.5233C148.782 48.3817 144.861 52.3162 140.02 52.3162C135.178 52.3162 131.257 48.3817 131.257 43.5233ZM165.238 49.0375C162.208 49.0375 159.743 46.5636 159.743 43.5233C159.743 40.4831 162.208 38.0092 165.238 38.0092C168.267 38.0092 170.733 40.4831 170.733 43.5233C170.733 46.5933 168.238 49.0375 165.238 49.0375ZM165.238 34.7305C160.396 34.7305 156.475 38.6649 156.475 43.5233C156.475 48.3817 160.396 52.3162 165.238 52.3162C167.376 52.3162 169.337 51.5412 170.852 50.2595V51.9883H174V43.7916V43.5233C174 38.6947 170.079 34.7305 165.238 34.7305ZM129.98 34.7305H128.406C124.634 34.7305 121.545 37.8303 121.545 41.6157V52.1075H124.842V47.8452V43.7618V41.6157C124.842 39.6485 126.446 38.039 128.406 38.039H129.98V34.7305ZM71.0791 52.523V42.061C71.0791 38.2756 67.99 35.1758 64.2177 35.1758C62.1088 35.1758 60.2672 36.0998 58.99 37.5901C57.7127 36.0998 55.8711 35.1758 53.7622 35.1758C50.0197 35.1758 46.9305 38.2756 46.9305 42.061V52.523H50.2276V42.061C50.2276 40.0938 51.8315 38.4843 53.7919 38.4843C55.7523 38.4843 57.3563 40.0938 57.3563 42.061V52.523H60.6533V42.061C60.6533 40.0938 62.2573 38.4843 64.2177 38.4843C66.1781 38.4843 67.782 40.0938 67.782 42.061V52.523H71.0791ZM82.0693 49.4828C79.0396 49.4828 76.5743 47.0089 76.5743 43.9686C76.5743 40.9284 79.0396 38.4545 82.0693 38.4545C85.099 38.4545 87.5644 40.9284 87.5644 43.9686C87.5644 47.0089 85.0693 49.4828 82.0693 49.4828ZM82.0693 35.1758C77.198 35.1758 73.2772 39.1102 73.2772 43.9686C73.2772 48.8271 77.198 52.7615 82.0396 52.7615C86.8812 52.7615 90.802 48.8271 90.802 43.9686C90.8317 39.14 86.9109 35.1758 82.0693 35.1758Z" fill="#48545D"/>
</svg>
