<svg width="169" height="88" viewBox="0 0 169 88" fill="none" xmlns="http://www.w3.org/2000/svg">
<rect width="169" height="88" fill="transparent"/>
<path fill-rule="evenodd" clip-rule="evenodd" d="M30.2874 54.3931L42.8143 20H56.3013L43.7699 54.3942C43.4397 55.3152 42.5521 55.9741 41.5154 55.9741H28.2731V55.9576C28.722 55.9122 29.149 55.7413 29.5052 55.4646C29.8614 55.1879 30.1325 54.8166 30.2874 54.3931ZM125.411 56.5211C119.604 56.5211 115.996 53.1596 115.996 47.7413C115.996 42.1181 119.325 38.6195 124.687 38.6195H125.137C125.809 38.6195 126.735 38.6415 128 38.7993V32.0117H131.788V55.9093C131.788 55.9093 128.189 56.5211 125.411 56.5211ZM125.377 41.5995C121.708 41.5995 119.924 43.5784 119.924 47.647C119.924 51.3002 122.077 53.5707 125.535 53.5707C126.2 53.5707 126.961 53.5269 127.999 53.4381V41.8429C126.963 41.6762 126.127 41.5995 125.377 41.5995ZM73.5337 55.9729L63.3031 38.1317L63.2998 55.9729H59.7341V33.3866H64.726L74.9567 51.0688L74.9523 33.3866H78.5651V55.9729H73.5337ZM106.122 56.3204C104.399 56.3204 102.603 56.1275 100.465 55.7163L100.233 55.6725V52.5171L100.571 52.5895C102.457 52.9919 104.085 53.335 105.715 53.335C107.03 53.335 110.094 53.1289 110.094 51.1938C110.094 49.5712 107.977 49.1633 106.276 48.8377L106.169 48.8158C105.851 48.7566 105.551 48.6963 105.299 48.6327C102.804 47.9858 100.142 47.0133 100.142 43.6727C100.142 40.4143 102.723 38.5472 107.223 38.5472C109.383 38.5472 110.951 38.7774 112.212 38.966L112.824 39.0559V42.1181L112.498 42.0589C111.072 41.7968 109.4 41.5271 107.793 41.5271C106.005 41.5271 103.885 41.8615 103.885 43.4501C103.885 44.7685 105.619 45.1459 107.627 45.5831L107.63 45.5837C110.441 46.1911 113.925 46.9541 113.925 50.7871C113.925 54.3031 111.084 56.3204 106.122 56.3204ZM142.42 56.3204C138.5 56.3204 134.87 55.6297 134.87 50.6281C134.87 45.1846 140.483 45.1846 143.84 45.1846C144.113 45.1846 145.226 45.2341 145.883 45.2634L146.235 45.2789C146.23 42.2255 146.192 41.4975 141.761 41.4975C140.004 41.4975 138.053 41.844 136.331 42.1531L136.002 42.2123V39.1973L136.223 39.1502C138.22 38.7445 140.146 38.5472 142.108 38.5472C146.402 38.5472 150.041 38.9791 150.041 44.3031V55.9137L149.779 55.9433C146.805 56.2766 144.444 56.3204 142.421 56.3204H142.42ZM143.745 47.8784C140.509 47.8784 138.503 48.3542 138.503 50.7224C138.503 53.4633 141.062 53.6902 143.462 53.6902C144.353 53.6902 145.953 53.5763 146.454 53.5406L146.462 53.54V47.9727C145.768 47.9431 143.964 47.8784 143.745 47.8784ZM89.2785 56.3204C85.353 56.3204 81.7238 55.6297 81.7238 50.6281C81.7238 45.1846 87.3377 45.1846 90.6927 45.1846C90.9674 45.1846 92.0821 45.2341 92.7408 45.2634L93.0932 45.2789C93.0889 42.2255 93.0461 41.4975 88.6148 41.4975C86.8572 41.4975 84.9065 41.844 83.184 42.1531L82.8549 42.2123V39.1973L83.082 39.1502C85.0167 38.7504 86.987 38.5484 88.9626 38.5472C93.2556 38.5472 96.8948 38.9791 96.8948 44.3031V55.9137L96.6326 55.9433C93.6594 56.2766 91.2973 56.3204 89.2785 56.3204ZM90.5984 47.8784C87.363 47.8784 85.3618 48.3542 85.3618 50.7224C85.3618 53.4633 87.9159 53.6902 90.3164 53.6902C91.2107 53.6902 92.8086 53.5765 93.3114 53.5407L93.312 53.5406L93.3126 53.5406L93.3127 53.5406L93.3204 53.54V47.9727C92.6215 47.9431 90.8178 47.8784 90.5995 47.8784H90.5984ZM165.122 63.65V56.2407C163.644 56.4468 162.859 56.4468 162.225 56.4468C160.724 56.4468 159.058 56.1212 157.768 55.5774C154.879 54.3769 153.156 51.329 153.156 47.4182C153.156 45.4667 153.633 41.898 156.816 39.975C158.415 39.0211 160.301 38.6133 163.138 38.6133C164.153 38.6133 165.524 38.69 166.849 38.7668L169 38.8786V61.9331L165.122 63.65ZM162.854 41.5943C159.006 41.5936 157.056 43.5561 157.056 47.4182C157.056 52.3914 159.965 53.4362 162.412 53.4362C163.008 53.4362 163.677 53.4362 165.159 53.2476V41.7018C163.998 41.625 163.462 41.5943 162.854 41.5943ZM27.1923 55.4515C27.9603 55.4515 28.6328 55.07 29.0443 54.4922L29.0455 54.4904C29.0899 54.4279 29.2384 54.2187 29.3438 53.9352L33.9385 41.3138L31.2506 33.9429C31.094 33.5697 30.8404 33.245 30.5161 33.0027C30.1917 32.7603 29.8084 32.6091 29.4059 32.5645C29.0033 32.52 28.5962 32.5839 28.2267 32.7495C27.8571 32.9152 27.5387 33.1765 27.3042 33.5066C27.2603 33.5669 27.0815 33.8355 27.0047 34.0635L22.41 46.6805L25.11 54.081C25.2851 54.4878 25.5757 54.8344 25.9458 55.0779C26.3158 55.3215 26.7492 55.4513 27.1923 55.4515ZM14.7859 32.0273H28.1741V32.0317C27.6982 32.0508 27.2387 32.2111 26.8542 32.492C26.4696 32.773 26.1775 33.162 26.015 33.6094L13.4869 68.0014H0L12.527 33.6083C12.8616 32.683 13.7491 32.0273 14.7859 32.0273Z" fill="#48545D"/>
</svg>
