<svg width="131" height="88" viewBox="0 0 131 88" fill="none" xmlns="http://www.w3.org/2000/svg">
<rect width="131" height="88" fill="transparent"/>
<path d="M6.30765 54.7292H0V33.3557H10.909L23.4244 49.3124V33.3557H29.7321V54.7292H19.0441L6.30765 38.5V54.7292ZM59.9112 48.1197C59.9112 51.0908 59.3839 52.1154 58.5112 53.0976C57.1733 54.5595 55.2263 55 51.4748 55H40.705C36.9535 55 35.0032 54.5595 33.667 53.0976C32.7942 52.1154 32.2669 51.0908 32.2669 48.1197V39.8803C32.2669 36.9109 32.7942 35.8879 33.667 34.904C35.0048 33.4405 36.9535 33 40.705 33H51.4748C55.2263 33 57.1733 33.4405 58.5112 34.904C59.3839 35.8879 59.9112 36.9109 59.9112 39.8803V48.1197ZM51.2095 49.5848C52.6505 49.5848 53.1582 49.5 53.5037 49.1867C53.8263 48.8947 53.9687 48.5178 53.9687 47.2615V40.7385C53.9687 39.4822 53.8263 39.1086 53.5037 38.8149C53.1582 38.5 52.6505 38.4168 51.2095 38.4168H40.9686C39.5276 38.4168 39.02 38.5 38.6761 38.8149C38.3519 39.1086 38.2094 39.4822 38.2094 40.7385V47.2615C38.2094 48.5178 38.3519 48.8947 38.6761 49.1867C39.02 49.5 39.5276 49.5848 40.9686 49.5848H51.2095ZM69.0779 33.3557V54.7292H62.487V33.3557H69.0779ZM80.2129 33.3557H88.9146L77.1705 43.3523L90.4162 54.7292H81.1054L69.0779 43.5823L80.2129 33.3557ZM91.6312 33.3557H98.2238V54.7292H91.6312V33.3557ZM123.355 54.7292L121.404 51.0059H108.65L106.722 54.7275H99.4405L111.124 33.3557H119.318L131 54.7292H123.355ZM110.941 46.3641H119.136L115.038 38.6256L110.941 46.3641Z" fill="#48545D"/>
</svg>
