<svg width="68" height="88" viewBox="0 0 68 88" fill="none" xmlns="http://www.w3.org/2000/svg">
<rect y="3.99609" width="67.2343" height="80.1089" fill="transparent"/>
<path fill-rule="evenodd" clip-rule="evenodd" d="M20.04 4.02429C19.5296 4.04045 19.0678 4.08085 19.0273 4.12126C18.9787 4.16167 18.4278 4.21824 17.8121 4.24248C17.1883 4.2748 16.6131 4.33137 16.5402 4.37986C16.4592 4.42027 16.1432 4.45259 15.8354 4.45259C15.4303 4.45259 15.244 4.48492 15.171 4.57381C15.09 4.6627 14.8875 4.69503 14.2799 4.69503C13.6723 4.69503 13.4698 4.72735 13.3887 4.81625C13.332 4.8809 13.2267 4.92938 13.1619 4.9213C13.089 4.90514 13.0161 4.96171 12.9999 5.04252C12.9675 5.18798 13.0242 5.19606 14.0531 5.13949C14.6445 5.10717 15.2115 5.04252 15.3169 5.01019C15.5761 4.91322 17.9579 4.9213 18.0551 5.01828C18.0956 5.05868 19.003 5.11525 20.0724 5.14758C21.1417 5.1799 22.0572 5.23647 22.1058 5.26879C22.1544 5.3092 22.6162 5.36577 23.1428 5.39001C23.6613 5.42234 24.1068 5.47891 24.1311 5.51931C24.1554 5.55164 24.3823 5.58396 24.6334 5.59204C24.8846 5.59204 25.2977 5.63245 25.5408 5.67285C25.7838 5.71326 26.2537 5.78599 26.5858 5.8264C26.9099 5.8668 27.2178 5.93145 27.2664 5.97994C27.315 6.02843 27.5094 6.06883 27.7038 6.06883C27.8983 6.06883 28.1899 6.1254 28.3519 6.19005C28.5059 6.2547 28.7894 6.31127 28.9757 6.31127C29.1621 6.31127 29.3889 6.36784 29.478 6.43249C29.559 6.49714 29.8183 6.55371 30.037 6.55371C30.2639 6.55371 30.5312 6.61028 30.6446 6.67493C30.758 6.73957 30.9606 6.79614 31.0902 6.79614C31.2279 6.79614 31.4224 6.85271 31.5277 6.90928C31.633 6.96585 31.7869 6.99817 31.8598 6.98201C31.9327 6.96585 32.0381 7.00625 32.0948 7.0709C32.1596 7.15172 32.3297 7.2002 32.5241 7.2002C32.7024 7.2002 32.9454 7.24869 33.0588 7.31334C33.4396 7.50729 34.1525 7.76589 34.4685 7.82246C34.59 7.8467 34.7358 7.91135 34.7844 7.976C34.833 8.04065 34.9383 8.08914 35.0194 8.08914C35.1004 8.08914 35.2057 8.14571 35.2624 8.21036C35.3191 8.27501 35.4244 8.33157 35.5054 8.33157C35.5864 8.33157 35.6918 8.38814 35.7485 8.45279C35.8052 8.51744 35.9105 8.57401 35.9915 8.57401C36.0725 8.57401 36.1778 8.63058 36.2346 8.69523C36.2913 8.75988 36.3642 8.81645 36.4047 8.81645C36.4371 8.81645 36.6963 8.97807 36.9799 9.1801C37.2634 9.38213 37.6037 9.59224 37.7333 9.65689C37.871 9.72154 38.0493 9.85084 38.1303 9.93974C38.2194 10.0367 38.3409 10.1094 38.4138 10.1094C38.5515 10.1094 40.4473 12.0166 40.4473 12.154C40.4473 12.1944 40.5607 12.356 40.6903 12.5096C40.828 12.655 40.9333 12.8247 40.9333 12.8732C40.9333 12.9298 41.0063 13.0429 41.0873 13.1318C41.3141 13.3662 41.8245 14.3925 41.8245 14.5945C41.8245 14.6915 41.8569 14.7965 41.8974 14.837C41.9379 14.8854 42.0108 15.0956 42.0594 15.3218C42.0831 15.4493 42.1206 15.6209 42.1557 15.7818C42.1808 15.8964 42.2046 16.0055 42.2215 16.0895C42.2701 16.2916 42.3268 16.8815 42.3592 17.4068C42.4402 18.7483 42.3106 19.5564 41.8488 20.5342C41.5328 21.213 41.387 21.3989 40.666 22.1343C39.9045 22.902 38.7703 23.8475 38.5921 23.8475C38.5515 23.8475 38.4786 23.896 38.43 23.9606C38.3733 24.0253 38.2194 24.1384 38.0736 24.2112C37.9277 24.2839 37.6847 24.4213 37.5227 24.5182C36.7611 24.9789 35.9348 25.3829 35.7809 25.3829C35.6837 25.3829 35.5621 25.4395 35.5054 25.5042C35.4487 25.5688 35.3677 25.6254 35.311 25.6254C35.2624 25.6254 34.8978 25.787 34.4928 25.9809C33.2047 26.6032 32.8725 26.7567 32.7834 26.7567C32.7267 26.7567 32.6457 26.8133 32.5889 26.878C32.5322 26.9426 32.3702 26.9992 32.2244 26.9992C32.0786 26.9992 31.9165 27.0558 31.8598 27.1204C31.8031 27.1851 31.6735 27.2416 31.5763 27.2416C31.4791 27.2416 31.1874 27.3386 30.9363 27.4517C30.6851 27.5649 30.4502 27.6376 30.4097 27.6134C30.3692 27.5891 30.2963 27.6214 30.2396 27.6861C30.1828 27.7507 30.0208 27.8073 29.875 27.8073C29.7292 27.8073 29.5671 27.8639 29.5104 27.9285C29.4537 27.9932 29.3484 28.0497 29.2755 28.0497C29.2026 28.0497 29.073 28.1063 28.9919 28.171C28.9028 28.2356 28.7489 28.2922 28.6517 28.2922C28.5464 28.2922 28.4492 28.3245 28.4168 28.3649C28.3924 28.4053 28.2547 28.4619 28.1089 28.4942C27.7605 28.5669 27.2421 28.7932 27.2421 28.874C27.2421 28.9063 27.161 28.9387 27.0638 28.9387C26.9585 28.9468 26.7317 29.0114 26.5534 29.1003C26.3752 29.1892 26.1484 29.2538 26.0512 29.2619C25.9539 29.2619 25.8486 29.2942 25.8243 29.3427C25.8 29.3831 25.7109 29.4235 25.6299 29.4235C25.5489 29.4235 25.2815 29.5286 25.0304 29.666C24.7792 29.7953 24.4876 29.9084 24.3742 29.9084C24.2689 29.9084 24.1392 29.965 24.0825 30.0296C24.0258 30.1024 23.9286 30.1428 23.8719 30.1185C23.8152 30.0943 23.7261 30.1347 23.6775 30.1993C23.6208 30.264 23.4911 30.3125 23.3939 30.3125C23.2886 30.3125 23.0213 30.4014 22.8025 30.5145C22.5757 30.6276 22.3326 30.7165 22.2597 30.7165C22.1382 30.7165 21.8709 30.8297 21.4901 31.0479C21.4253 31.0883 21.3119 31.1448 21.2471 31.1691C21.1822 31.1933 21.0688 31.2499 21.004 31.2903C20.9392 31.3307 20.8258 31.3873 20.761 31.4115C20.6962 31.4358 20.5827 31.4923 20.5179 31.5327C20.4531 31.5732 20.1291 31.7348 19.805 31.8964C19.481 32.058 19.1974 32.2277 19.1731 32.2601C19.1488 32.3005 19.0678 32.3328 18.9868 32.3328C18.9139 32.3328 18.7437 32.4378 18.6141 32.5752C18.4845 32.7126 18.3225 32.8177 18.2496 32.8177C18.1766 32.8177 18.0794 32.8581 18.0308 32.9066C17.9395 32.9976 17.8554 33.0459 17.4025 33.3059L17.3098 33.3591C17.1316 33.4561 16.8723 33.6419 16.7346 33.7793C16.5888 33.9086 16.4024 34.0379 16.3214 34.0622C16.2404 34.0864 15.9083 34.3693 15.5842 34.6763C15.2521 34.9915 14.9604 35.242 14.9199 35.242C14.8308 35.242 14.288 35.7915 13.8991 36.2764C13.729 36.4785 13.4536 36.7936 13.2915 36.9714C13.1214 37.1573 12.9594 37.3674 12.9351 37.4482C12.9108 37.5371 12.8135 37.6745 12.7244 37.7634C12.4895 37.9977 11.6064 39.8645 11.6064 40.1312C11.6064 40.2443 11.5659 40.4221 11.5092 40.5191C11.3229 40.8585 11.2581 41.513 11.2257 43.2748C11.2095 44.4304 11.2257 45.0769 11.2824 45.1334C11.3229 45.1738 11.3634 45.3435 11.3634 45.5052C11.3634 45.6668 11.412 45.982 11.4768 46.2002C11.5335 46.4183 11.6307 46.8143 11.6875 47.081C11.7442 47.3477 11.8414 47.6467 11.8981 47.7437C11.9629 47.8406 12.0115 47.9861 12.0115 48.0588C12.0115 48.1316 12.1735 48.5356 12.3761 48.9639C12.5786 49.3842 12.7406 49.764 12.7406 49.8125C12.7406 49.8609 12.8297 50.0145 12.9432 50.1599C13.0566 50.3054 13.1457 50.4832 13.1457 50.5559C13.1457 50.6206 13.2024 50.7014 13.2672 50.7256C13.332 50.758 13.3887 50.863 13.3887 50.9681C13.3887 51.065 13.4374 51.1863 13.4941 51.2186C13.5427 51.2509 13.6804 51.461 13.7857 51.6873C13.891 51.9055 14.0774 52.2368 14.1908 52.4146C14.3123 52.5924 14.4662 52.8672 14.5472 53.0288C14.6201 53.1904 14.7336 53.3682 14.8065 53.4248C14.8713 53.4813 14.928 53.5541 14.928 53.5864C14.928 53.6834 15.7462 54.8551 16.2485 55.4531C16.4105 55.6552 16.5483 55.8572 16.5483 55.9057C16.5483 55.9461 16.6374 56.0673 16.7508 56.1724C16.9128 56.3259 16.9533 56.334 16.9938 56.237C17.0262 56.1643 16.9857 55.9784 16.9209 55.8087C16.848 55.639 16.7913 55.4208 16.7913 55.3238C16.7913 55.2269 16.7346 55.0087 16.6698 54.8551C16.524 54.5076 16.4916 51.8166 16.6293 51.6792C16.6698 51.6388 16.7346 51.4206 16.7589 51.2024C16.7913 50.9762 16.8399 50.7822 16.8723 50.758C16.9047 50.7337 17.0262 50.5155 17.1478 50.2731C17.723 49.1175 19.3594 47.3073 20.3964 46.6769C20.5503 46.5881 20.842 46.3941 21.0607 46.2406C21.2714 46.087 21.6521 45.8527 21.8952 45.7234C22.1382 45.5941 22.4137 45.4244 22.5028 45.3516C22.5919 45.2708 22.8673 45.1092 23.1104 44.988C23.3534 44.8668 23.6694 44.7051 23.799 44.6243C23.9367 44.5435 24.4633 44.293 24.9737 44.0586C25.2231 43.9402 25.5015 43.8101 25.7522 43.693L25.7525 43.6929L25.7555 43.6915L25.7559 43.6913C26.0168 43.5694 26.2473 43.4618 26.3833 43.396C26.6426 43.2667 26.8856 43.1616 26.918 43.1616C26.9585 43.1616 27.2259 43.0485 27.5094 42.9192C27.801 42.7818 28.0684 42.6767 28.1089 42.6767C28.1494 42.6767 28.4087 42.5636 28.6841 42.4343C28.9595 42.2969 29.2593 42.1919 29.3484 42.1919C29.4294 42.1919 29.5185 42.1595 29.5509 42.1191C29.5752 42.0787 29.713 42.0141 29.8588 41.9898C29.9965 41.9575 30.2558 41.8605 30.4178 41.7797C30.5879 41.6908 31.0254 41.5211 31.3899 41.3918C32.192 41.1171 32.8077 40.8989 33.0345 40.81C33.1236 40.7777 33.3991 40.6888 33.6421 40.616C33.8852 40.5352 34.2092 40.4221 34.355 40.3655C34.5009 40.3009 34.7034 40.2524 34.8006 40.2524C34.9059 40.2524 35.0275 40.212 35.0761 40.1635C35.1247 40.115 35.2867 40.0503 35.4325 40.0099C35.7404 39.9372 36.1454 39.7917 36.5343 39.6301C36.672 39.5736 36.8422 39.5251 36.907 39.5251C36.9799 39.5251 37.0609 39.4847 37.0852 39.4443C37.1095 39.3958 37.1986 39.3634 37.2715 39.3634C37.3444 39.3634 37.5065 39.315 37.628 39.2503C37.7495 39.1857 37.9682 39.1129 38.1141 39.0806C38.2599 39.0483 38.5515 38.9351 38.7622 38.8301C38.9728 38.725 39.1997 38.6361 39.2645 38.6361C39.3374 38.6361 39.5237 38.5796 39.6938 38.5068C39.864 38.4341 40.0746 38.3452 40.1637 38.3129C41.2007 37.925 41.7759 37.6826 42.7156 37.2381C43.1111 37.0545 43.5353 36.8536 43.7514 36.7513L43.7524 36.7508L43.7534 36.7504L43.8498 36.7047C44.0038 36.632 44.3116 36.4704 44.5384 36.3411C45.1055 36.0178 45.7536 35.6703 46.2883 35.3956C46.5395 35.2663 46.7906 35.1046 46.8473 35.04C46.904 34.9753 46.9932 34.9188 47.0418 34.9188C47.0985 34.9188 47.301 34.7814 47.4954 34.6117C47.6899 34.4501 47.9653 34.24 48.1111 34.1511C48.2489 34.0622 48.5081 33.8925 48.6782 33.7793C49.0995 33.4884 51.141 31.4681 51.141 31.3388C51.141 31.2822 51.2545 31.1287 51.3922 30.9913C51.5299 30.862 51.6919 30.6519 51.7648 30.5307C51.8297 30.4014 52.0079 30.1347 52.1618 29.9327C52.3157 29.7387 52.4373 29.5286 52.4373 29.4801C52.4373 29.4235 52.5507 29.2215 52.6803 29.0195C52.8099 28.8175 52.9233 28.5912 52.9233 28.5104C52.9233 28.4296 52.972 28.2841 53.0368 28.1871C53.3041 27.7831 53.8388 25.9809 53.9684 25.0516C54.0089 24.8092 54.0818 24.5263 54.1304 24.4213C54.2034 24.3001 54.2277 23.5404 54.2277 21.8757C54.2358 19.8635 54.2115 19.4675 54.1061 19.2574C54.0332 19.12 53.9765 18.926 53.9765 18.8291C53.9765 18.5947 53.6363 17.4472 53.2555 16.4047C52.9882 15.6693 52.4454 14.5622 52.1051 14.0692C51.935 13.8106 51.7892 13.5763 51.7892 13.5359C51.7892 13.4955 51.6595 13.3258 51.5056 13.1561C51.3517 12.9864 51.1735 12.7601 51.1248 12.655C50.8251 12.1055 48.9456 10.2064 47.9815 9.48719C47.6494 9.23667 47.2848 8.95383 47.1714 8.84877C47.058 8.7518 46.7825 8.57401 46.5476 8.45279C46.3126 8.33966 46.102 8.21036 46.0777 8.16995C46.0291 8.08914 43.8093 7.00625 43.5096 6.91736C43.4043 6.88504 43.145 6.77998 42.9182 6.67493C42.3187 6.40825 41.0549 5.98802 40.8361 5.98802C40.7308 5.98802 40.5688 5.93145 40.4797 5.8668C40.3987 5.80215 40.2042 5.74559 40.0584 5.74559C39.9126 5.74559 39.71 5.70518 39.6128 5.64861C39.5156 5.60012 39.2726 5.52739 39.07 5.49507C38.8675 5.46274 38.5434 5.39001 38.3409 5.34152C37.0447 5.00211 36.2832 4.85665 34.9383 4.70311C34.6062 4.6627 34.2254 4.58997 34.1039 4.54148C33.9743 4.493 33.6664 4.45259 33.4072 4.45259C33.1479 4.45259 32.832 4.42027 32.7024 4.37178C32.4593 4.29097 31.2117 4.17783 29.2674 4.05661C28.2385 3.99196 22.0491 3.9758 20.04 4.02429ZM44.4979 40.6948C44.3845 40.7594 44.1981 40.8079 44.0847 40.816C43.9632 40.816 43.8255 40.8726 43.7688 40.9372C43.712 41.0019 43.5986 41.0584 43.5176 41.0584C43.4366 41.0584 43.3475 41.0907 43.3232 41.1392C43.2989 41.1796 43.1936 41.22 43.0963 41.22C42.9991 41.22 42.8128 41.2766 42.6832 41.3413C42.5617 41.4059 42.3915 41.4625 42.3105 41.4625C42.2376 41.4625 42.0837 41.5271 41.9784 41.6079C41.873 41.6888 41.4923 41.8989 41.1358 42.0686C40.4634 42.3999 39.1996 43.1757 39.1105 43.3212C39.0781 43.3697 38.9079 43.499 38.7216 43.6202C38.2517 43.9192 36.8907 45.2526 36.834 45.4788C36.8016 45.5839 36.7368 45.697 36.6801 45.7294C36.4937 45.8344 35.7484 47.4264 35.7484 47.7093C35.7484 47.8547 35.7079 48.0163 35.6593 48.0648C35.6026 48.1214 35.5459 48.5578 35.5216 49.075C35.4892 49.8265 35.5054 50.0447 35.6188 50.2468C35.6917 50.3922 35.7484 50.6508 35.7484 50.8205C35.7484 51.0064 35.797 51.1842 35.8699 51.2408C35.9347 51.2973 35.9915 51.4185 35.9996 51.5155C35.9996 51.6771 36.1373 51.96 36.518 52.6146C36.6072 52.7681 37.0284 53.2449 37.4497 53.6732C38.114 54.3359 38.3246 54.4894 38.9485 54.7884C39.3535 54.9743 39.8882 55.241 40.1474 55.3703C40.3986 55.4996 40.6902 55.6046 40.7956 55.6046C40.8928 55.6046 41.0467 55.6612 41.1277 55.7258C41.2168 55.7905 41.387 55.847 41.5085 55.847C41.63 55.847 41.7515 55.8794 41.7758 55.9198C41.8001 55.9521 42.0027 56.0087 42.2214 56.041C42.4482 56.0733 42.6508 56.1299 42.6751 56.1703C42.6994 56.2188 42.8938 56.2511 43.1044 56.2511C43.3151 56.2511 43.5905 56.3077 43.7201 56.3723C43.8579 56.4451 44.1738 56.4935 44.5384 56.4935C44.8543 56.4935 45.2999 56.5501 45.5186 56.6148C46.0857 56.7845 51.6595 56.7845 52.4372 56.6148C52.7289 56.5501 53.1744 56.5016 53.4337 56.4935C53.8954 56.4935 54.2195 56.3966 54.2195 56.2592C54.2195 56.1865 53.5957 55.9279 53.4175 55.9279C53.1663 55.9279 50.4038 54.4813 49.5126 53.8833C48.9779 53.5197 48.4189 53.1479 48.2812 53.059C47.6007 52.6469 45.6402 50.6185 45.0893 49.7538C44.8543 49.3982 44.6599 49.0588 44.6599 49.0023C44.6599 48.9457 44.6032 48.7679 44.5303 48.5982C44.5036 48.5361 44.4736 48.4685 44.4448 48.4035L44.4447 48.4033L44.4445 48.4028L44.4443 48.4023C44.3946 48.2902 44.3482 48.1856 44.3277 48.1295C44.1414 47.7093 43.9632 45.0505 44.0847 44.4929L44.1025 44.3941L44.1025 44.3939L44.1026 44.3937C44.1458 44.1543 44.2116 43.7899 44.2467 43.5232C44.3764 42.5696 44.5546 41.9958 44.9921 41.115C45.1541 40.7837 45.1622 40.719 45.065 40.6544C44.8948 40.5493 44.7328 40.5574 44.4979 40.6948ZM21.259 64.673C21.6074 64.6407 21.9233 64.5922 21.9557 64.5599C22.0206 64.4872 22.9927 64.5357 23.8839 64.6488C25.4393 64.8508 27.1163 65.8367 28.1209 67.1378C28.2667 67.3237 28.3801 67.5096 28.3801 67.558C28.3801 67.5984 28.4368 67.6793 28.5016 67.7358C28.5665 67.7924 28.6232 67.8974 28.6232 67.9702C28.6232 68.0429 28.6637 68.148 28.7123 68.1965C28.8743 68.3581 29.1984 69.3682 29.2794 69.9582C29.328 70.2652 29.3928 70.8309 29.4333 71.2107C29.5305 72.1401 29.5224 76.7626 29.4252 77.5141C29.3847 77.8454 29.328 78.3384 29.3037 78.6051C29.2794 78.8717 29.2146 79.2192 29.1497 79.3728C29.093 79.5263 29.0039 79.8011 28.9553 79.987C28.9067 80.1647 28.7609 80.4799 28.6232 80.6739C28.4935 80.8678 28.3801 81.0779 28.3801 81.1345C28.3801 81.183 27.9994 81.6113 27.5376 82.08C26.7761 82.8558 26.6221 82.9689 25.8606 83.3326C25.3988 83.5508 24.9046 83.7366 24.7588 83.7366C24.6211 83.7366 24.4834 83.769 24.4591 83.8094C24.3213 84.0276 21.2428 84.068 21.0079 83.8579C20.935 83.7932 20.7567 83.7366 20.6109 83.7366C20.4651 83.7366 20.0438 83.5912 19.6712 83.4134C19.2985 83.2356 18.9663 83.0901 18.9339 83.0901C18.9096 83.0901 18.7557 82.977 18.6018 82.8477C18.456 82.7103 18.2939 82.6053 18.2453 82.6053C18.1238 82.6053 17.6539 82.1204 17.4271 81.7567C17.3137 81.579 17.1435 81.3608 17.0463 81.28C16.86 81.1102 16.3091 80.0112 16.3091 79.793C16.3091 79.7203 16.2524 79.5829 16.1876 79.5021C16.1228 79.4132 16.0661 79.195 16.0661 79.0091C16.0661 78.8233 16.0175 78.6293 15.9688 78.5808C15.823 78.4354 15.7744 71.0168 15.904 70.3865C15.9526 70.1521 16.0256 69.748 16.0661 69.4814C16.0985 69.2228 16.1714 68.9723 16.22 68.9238C16.2686 68.8753 16.3091 68.7702 16.3091 68.6975C16.3091 68.6248 16.3658 68.5197 16.4306 68.4631C16.4954 68.4066 16.5521 68.2611 16.5521 68.1318C16.5521 67.9944 16.6494 67.7924 16.7952 67.6308C16.9329 67.4772 17.0382 67.3156 17.0382 67.2752C17.0382 67.1621 18.1319 66.0388 18.2453 66.0388C18.3101 66.0388 18.4965 65.9095 18.6747 65.7559C18.8448 65.5943 19.0879 65.4246 19.2094 65.3761C19.736 65.1579 20.3355 64.8912 20.4732 64.8104C20.5623 64.77 20.9107 64.7054 21.259 64.673ZM24.0702 67.1701C24.0054 67.1701 23.9244 67.1378 23.8758 67.0893C23.6894 66.9035 22.0206 66.9439 21.2428 67.1459C20.854 67.2509 19.5983 68.0914 19.4038 68.3662C19.1608 68.7217 18.8286 69.441 18.7314 69.8369C18.5694 70.4915 18.4884 72.8189 18.5289 75.5423C18.5532 77.0211 18.6099 78.3141 18.6504 78.4111C18.6909 78.5162 18.8043 78.8717 18.9015 79.195C19.0636 79.7364 19.1365 79.8415 19.7036 80.4072C20.2707 80.9809 20.5785 81.183 21.3319 81.4739C21.5021 81.5466 22.0368 81.6032 22.6768 81.6194C23.5598 81.6355 23.7542 81.6194 23.8434 81.5224C23.9001 81.4497 24.0459 81.3931 24.1593 81.3931C24.2808 81.3931 24.5239 81.288 24.7021 81.1507C24.8722 81.0213 25.0586 80.9082 25.0991 80.9082C25.3664 80.9001 26.3548 79.5991 26.3548 79.2596C26.3548 79.195 26.4115 79.0415 26.4763 78.9202C26.5411 78.7909 26.5978 78.5566 26.5978 78.403C26.5978 78.2414 26.6464 78.0636 26.7031 78.0071C26.8328 77.8778 26.8409 70.7986 26.7031 70.6289C26.6545 70.5723 26.5897 70.3218 26.5573 70.0794C26.4682 69.3925 26.0874 68.6571 25.5203 68.0752C25.0586 67.6146 24.3537 67.1701 24.0702 67.1701ZM59.3967 64.5757C59.3318 64.6242 59.0888 64.6646 58.8539 64.6646C58.627 64.6646 58.4164 64.6969 58.3921 64.7373C58.3678 64.7777 58.2139 64.8343 58.0518 64.8666C57.744 64.9232 57.6792 64.9474 57.2093 65.1899C56.229 65.6909 55.9374 65.8929 55.2812 66.5314C54.9085 66.8869 54.5034 67.396 54.471 67.5496C54.4548 67.6062 54.3576 67.7516 54.2523 67.8648C54.1551 67.9698 54.0417 68.1961 54.0093 68.3658C53.9769 68.5274 53.9282 68.6971 53.9039 68.7456C53.3693 69.5699 53.1991 76.2935 53.6447 78.9279C53.7824 79.7118 54.0741 80.5523 54.3009 80.7947C54.3819 80.8836 54.4548 81.0129 54.4548 81.0776C54.4548 81.1503 54.5683 81.3038 54.6979 81.4331C54.8356 81.5624 54.9409 81.7079 54.9409 81.7645C54.9409 81.9827 56.2533 82.9847 56.9663 83.308C57.2093 83.413 57.509 83.5585 57.6306 83.6231C57.744 83.6878 57.9546 83.7363 58.1004 83.7363C58.2382 83.7363 58.4569 83.7928 58.5946 83.8575C58.8944 84.011 61.0655 84.0353 61.7055 83.8979L61.8444 83.868C62.0408 83.8257 62.2525 83.78 62.3699 83.7605C62.5157 83.7363 62.6777 83.6716 62.7263 83.607C62.7749 83.5423 62.9045 83.4938 63.0018 83.4938C63.18 83.4938 63.982 83.0575 64.2575 82.8069C64.3304 82.7423 64.4276 82.6857 64.4681 82.6857C64.5977 82.6776 65.3917 81.9018 65.3917 81.7806C65.3917 81.716 65.5213 81.5382 65.6833 81.3846C65.975 81.1099 66.5258 80.0755 66.5258 79.7926C66.5258 79.7118 66.5583 79.6149 66.6069 79.5664C66.6798 79.4936 66.7527 79.0896 66.9309 77.635C67.0281 76.8672 67.02 71.469 66.9228 70.7659C66.8823 70.4507 66.8175 69.982 66.777 69.7154C66.7446 69.4487 66.6636 69.1012 66.615 68.9476C66.4286 68.4304 65.975 67.5334 65.8048 67.3556C65.7076 67.2587 65.6347 67.1455 65.6347 67.1051C65.6347 66.9677 64.7111 66.1192 64.217 65.796C63.9496 65.6263 63.6337 65.4081 63.5121 65.3192C63.3987 65.2222 63.2529 65.1495 63.2043 65.1495C63.1476 65.1495 62.9937 65.101 62.8559 65.0363C62.4428 64.8505 61.9891 64.7292 61.3815 64.6565C60.3769 64.5272 59.5263 64.4949 59.3967 64.5757ZM61.9405 67.2667C62.2078 67.4122 62.5481 67.6142 62.6939 67.7274L62.8514 67.85C62.9745 67.9458 63.1102 68.0516 63.2043 68.1234C63.3339 68.2284 63.4473 68.3496 63.4473 68.39C63.4473 68.4385 63.5527 68.6082 63.6823 68.7699C64.1278 69.3517 64.298 70.176 64.4276 72.4306C64.5329 74.3378 64.4276 77.3844 64.2089 78.5158C64.0468 79.3724 63.8686 79.6957 63.1719 80.4068C62.7263 80.8674 62.4509 81.0695 61.9405 81.32L61.2843 81.6352H60.2392C59.4696 81.6352 59.1293 81.6028 58.9592 81.5139C58.8377 81.4493 58.6756 81.3927 58.6108 81.3927C58.3921 81.3927 57.5901 80.8513 57.2012 80.4472C56.6989 79.9219 56.2857 79.0815 56.1642 78.3299C56.0346 77.5057 55.9698 73.1418 56.0589 71.6144C56.1723 69.7962 56.4235 69.0123 57.1526 68.2446C57.7845 67.5738 58.627 67.097 59.3562 66.9758C59.4939 66.9597 60.0124 66.9597 60.5227 66.9758C61.3572 67.0162 61.4949 67.0405 61.9405 67.2667ZM0.0063564 74.4633C-0.00984631 69.2671 0.0063564 64.9437 0.0387618 64.8386L0.103573 64.6608H4.18665C7.62973 64.6608 8.31024 64.677 8.55328 64.782C8.71531 64.8467 8.95025 64.9033 9.07177 64.9033C9.19329 64.9033 9.37152 64.9598 9.45253 65.0245C9.54165 65.0891 9.67127 65.1457 9.75229 65.1457C9.92241 65.1457 10.611 65.4528 10.6758 65.5578C10.7082 65.5982 10.8622 65.7195 11.0242 65.8245C11.405 66.0669 12.0936 66.7458 12.0936 66.8751C12.0936 66.9316 12.207 67.0771 12.3366 67.2064C12.4743 67.3357 12.5797 67.5054 12.5797 67.5862C12.5797 67.667 12.6364 67.7559 12.7012 67.7802C12.766 67.8125 12.8227 67.9014 12.8227 67.9822C12.8227 68.0711 12.8551 68.2004 12.8956 68.2812C13.0657 68.5883 13.2278 69.5904 13.2278 70.2934C13.2278 71.0692 13.1305 71.6511 12.9361 72.039C12.8713 72.1683 12.8227 72.3218 12.8227 72.3784C12.8227 72.6531 12.3447 73.3724 11.8262 73.9057C11.2672 74.4553 10.8703 74.7058 9.8414 75.1422C9.44443 75.3119 9.32291 75.5705 9.53355 75.8048C9.60646 75.8856 9.66317 76.0069 9.66317 76.0796C9.66317 76.1523 9.69558 76.225 9.72798 76.2493C9.80089 76.2978 10.9594 78.5928 10.9594 78.6898C10.9594 78.7221 11.0161 78.811 11.0809 78.8838C11.2024 79.0211 11.6966 79.9182 12.3447 81.1869C12.6526 81.8011 12.7093 81.9142 12.9037 82.2536C13.2359 82.8759 13.6247 83.7567 13.5923 83.8214C13.5599 83.8618 12.9118 83.8941 12.1422 83.8941L11.9758 83.8942C11.1126 83.8947 10.8128 83.8949 10.6355 83.7476C10.5411 83.6692 10.4815 83.549 10.39 83.3648L10.3518 83.288C10.2627 83.1102 10.052 82.7627 9.89001 82.5122C9.71988 82.2617 9.58216 82.0274 9.58216 81.995C9.58216 81.9627 9.34722 81.4455 9.05557 80.8475C8.76392 80.2495 8.52898 79.7161 8.52898 79.6596C8.52898 79.603 8.42366 79.401 8.28594 79.2232C8.15632 79.0373 8.0429 78.8029 8.0429 78.6979C8.0429 78.5928 8.01049 78.4797 7.96189 78.4312C7.89707 78.3666 7.4515 77.5423 6.92491 76.4998C6.852 76.3624 6.70618 76.1361 6.60086 75.9907L6.39832 75.7321L4.4864 75.7482L2.57449 75.7725L2.53398 79.8131L2.49347 83.8537L1.26207 83.878L0.0225591 83.9022L0.0063564 74.4633ZM10.1655 68.7418C9.74418 68.1196 9.42013 67.8125 8.81253 67.4812L8.32645 67.2064L5.57199 67.1822C3.40892 67.166 2.78512 67.1822 2.6798 67.263C2.55018 67.3599 2.53398 67.6105 2.53398 70.3096C2.52588 72.637 2.55018 73.2673 2.63119 73.3158C2.6879 73.3562 3.95982 73.3885 5.45857 73.3885H8.17252L8.82063 73.0734C9.52545 72.734 9.76039 72.4996 10.2384 71.6511C10.5138 71.1743 10.5138 71.1581 10.5057 70.1964L10.4895 69.2267L10.1655 68.7418ZM30.7007 64.7137C30.6197 64.7865 30.6359 65.1259 30.7169 65.2875C30.7655 65.3602 30.8546 65.6431 30.9276 65.9098C31.203 66.9118 31.9564 69.1423 32.0536 69.2392C32.078 69.2716 32.1023 69.3847 32.1023 69.4978C32.1023 69.619 32.1509 69.7807 32.2157 69.8696C32.2724 69.9585 32.3453 70.1847 32.3777 70.3706C32.402 70.5565 32.5154 70.8716 32.6207 71.0737C32.7261 71.2757 32.8314 71.5747 32.8557 71.7444C32.8962 72.0677 33.0258 72.4798 33.204 72.8354C33.2689 72.9485 33.3175 73.1344 33.3175 73.2475C33.3175 73.3526 33.3742 73.49 33.439 73.5465C33.5038 73.6031 33.5605 73.7162 33.5605 73.8132C33.5605 73.9748 33.9251 75.1708 34.0466 75.4133C34.0871 75.486 34.1438 75.68 34.1681 75.8416C34.2005 76.0032 34.2572 76.1568 34.2977 76.181C34.3382 76.2052 34.3706 76.2941 34.3706 76.3911C34.3706 76.48 34.4192 76.6659 34.4841 76.8033C34.638 77.1669 34.8567 77.9023 34.8567 78.0801C34.8567 78.1609 34.9458 78.3952 35.0592 78.6054C35.1727 78.8155 35.2618 79.0417 35.2618 79.0983C35.2618 79.163 35.3104 79.3327 35.3671 79.4701C35.5048 79.7933 35.6669 80.2458 35.7236 80.456C35.7479 80.5449 35.8127 80.7307 35.8775 80.8762C35.9423 81.0136 35.9909 81.1994 35.9909 81.2802C35.9909 81.3611 36.0314 81.4742 36.0719 81.5146C36.1205 81.5631 36.1772 81.7085 36.2015 81.8379C36.2177 81.9671 36.2583 82.1288 36.2907 82.1934C36.3555 82.347 36.5418 82.9531 36.6471 83.3652C36.7767 83.8824 36.801 83.8905 37.8218 83.8905C38.713 83.8905 38.7454 83.8824 38.875 83.6884C38.9479 83.5834 39.037 83.3733 39.0694 83.2278C39.1423 82.9288 39.3044 82.4601 39.3935 82.2742C39.4259 82.2015 39.4826 82.0237 39.515 81.8702C39.5474 81.7166 39.596 81.5469 39.6284 81.5065C39.6608 81.458 39.8634 80.8762 40.074 80.2135C40.2927 79.5428 40.4953 78.9286 40.5358 78.8397C40.5682 78.7508 40.6816 78.4195 40.7788 78.1124C40.876 77.7972 40.9894 77.5144 41.0299 77.4659C41.0624 77.4255 41.0948 77.3124 41.0948 77.2154C41.0948 77.1184 41.1515 76.9325 41.2163 76.8113C41.2811 76.682 41.3378 76.5042 41.3378 76.4154C41.3378 76.3265 41.3945 76.181 41.4593 76.1002C41.5241 76.0113 41.5808 75.8577 41.5808 75.7527C41.5808 75.6476 41.6132 75.5022 41.6538 75.4214C41.6943 75.3486 41.9859 74.4839 42.3019 73.5061C42.6178 72.5283 42.9095 71.6717 42.95 71.607C42.9905 71.5343 43.0472 71.3565 43.0796 71.203C43.112 71.0494 43.1606 70.8797 43.193 70.8393C43.2254 70.7908 43.3145 70.5403 43.3955 70.2736C43.4766 70.0069 43.59 69.6595 43.6467 69.5059C43.675 69.4291 43.7115 69.3261 43.7479 69.2231C43.7844 69.12 43.8209 69.017 43.8492 68.9402C43.8978 68.7867 43.9626 68.5685 43.9869 68.4554C44.0112 68.3422 44.0599 68.2129 44.0923 68.1725C44.1328 68.124 44.1733 67.9705 44.1976 67.8169C44.2219 67.6715 44.2786 67.5098 44.3272 67.4614C44.3758 67.4129 44.4163 67.2997 44.4163 67.2189C44.4163 67.1381 44.4649 66.9522 44.5297 66.8149C44.7647 66.2815 45.1616 64.8996 45.113 64.7784C45.0806 64.6733 44.8619 64.6572 43.8087 64.6572H42.553L42.3991 64.9966C42.31 65.1905 42.1965 65.5057 42.1479 65.7077C42.0507 66.0552 41.9859 66.2653 41.7429 66.9199C41.6862 67.0735 41.6213 67.3563 41.6051 67.5422C41.5808 67.728 41.516 67.922 41.4512 67.9786C41.3864 68.027 41.3378 68.1725 41.3378 68.2856C41.3378 68.4069 41.2811 68.5766 41.2163 68.6655C41.1515 68.7463 41.0948 68.9079 41.0948 69.0291C41.0948 69.1423 41.0624 69.2635 41.0299 69.312C40.9246 69.4251 40.6087 70.4191 40.6087 70.6292C40.6087 70.7262 40.552 70.8636 40.4872 70.9282C40.4223 71.0009 40.3656 71.1545 40.3656 71.2838C40.3656 71.4131 40.3332 71.5343 40.2927 71.5585C40.2522 71.5909 40.1955 71.7525 40.1631 71.9303C40.1307 72.1081 40.074 72.2697 40.0335 72.302C39.993 72.3263 39.9606 72.4313 39.9606 72.5364C39.9606 72.6414 39.912 72.8515 39.8471 72.997C39.7823 73.1425 39.6932 73.4091 39.6527 73.5869C39.4988 74.1849 39.0613 75.6072 38.9803 75.7446C38.9398 75.8254 38.9074 75.9709 38.9074 76.0759C38.9074 76.181 38.8507 76.3345 38.7859 76.4234C38.7211 76.5042 38.6644 76.6659 38.6644 76.7628C38.6644 76.8679 38.6157 77.0538 38.5509 77.1669C38.4213 77.4336 38.2593 77.87 38.1864 78.1851C38.1378 78.4195 37.8704 78.5892 37.7165 78.4922C37.6679 78.4599 37.4978 78.0316 37.3357 77.5467C37.1737 77.0538 37.0036 76.6012 36.9712 76.5366C36.9307 76.4638 36.874 76.286 36.8415 76.1325C36.8091 75.979 36.7524 75.8093 36.72 75.7689C36.6876 75.7204 36.6309 75.5587 36.5985 75.4052C36.5499 75.1547 35.7965 72.7465 35.2942 71.2272C35.1889 70.912 35.0998 70.5969 35.0998 70.5322C35.0998 70.4595 35.0512 70.3059 34.9863 70.1767C34.9215 70.0554 34.8243 69.7887 34.7757 69.5867C34.7271 69.3847 34.6461 69.1099 34.6056 68.9806C34.557 68.8432 34.4841 68.5927 34.4435 68.4149C34.3949 68.2372 34.3301 68.0594 34.2815 68.0109C34.241 67.9705 34.2086 67.8493 34.2086 67.7442C34.2086 67.6391 34.16 67.4533 34.0952 67.3401C33.9494 67.0492 33.8035 66.6209 33.7306 66.2734C33.6982 66.1199 33.6253 65.9098 33.5767 65.8128C33.52 65.7158 33.4795 65.5704 33.4795 65.4895C33.4795 65.4007 33.4066 65.1825 33.3175 64.9966L33.1554 64.6572H31.9483C31.2921 64.6572 30.725 64.6814 30.7007 64.7137ZM47.5926 74.3583C47.5845 69.1378 47.5926 64.8144 47.6169 64.7578C47.6412 64.6851 47.9572 64.6608 48.7916 64.6608C49.9258 64.6608 49.9339 64.6608 50.0068 64.8548C50.0473 64.9679 50.0798 65.2507 50.0798 65.4851C50.0716 65.7195 50.0554 69.9621 50.0392 74.9078L50.0068 83.9022L48.8078 83.878L47.6169 83.8537L47.5926 74.3583Z" fill="#48545D"/>
</svg>
