<svg width="115" height="88" viewBox="0 0 115 88" fill="none" xmlns="http://www.w3.org/2000/svg">
<rect width="114.714" height="88" fill="transparent"/>
<path fill-rule="evenodd" clip-rule="evenodd" d="M57.7958 0C68.9082 0 77.9638 9.03546 78.1442 20.2109C85.3303 23.3867 90.3665 30.6313 90.3677 39.0427C90.3677 50.3724 81.2351 59.5911 70.0101 59.5911C65.4312 59.5911 61.2004 58.0554 57.7958 55.4701C54.3912 58.0554 50.1604 59.5911 45.5815 59.5911C34.3564 59.5911 25.225 50.3736 25.225 39.0427C25.225 30.6301 30.2601 23.3867 37.4474 20.2109C37.6278 9.03662 46.6834 0 57.7958 0ZM59.4044 23.9759C62.9894 27.3302 65.3772 31.9663 65.8483 37.1556C68.0246 36.0769 69.9573 34.5725 71.5429 32.7527C70.0756 28.4321 68.4187 24.2856 66.6204 20.8709C63.9707 21.3731 61.5221 22.4529 59.4044 23.9759ZM51.7254 40.1643C52.0241 45.1773 54.3084 49.6579 57.7958 52.8128C61.282 49.6579 63.5663 45.1785 63.8662 40.1643C61.9484 40.7709 59.9089 41.098 57.7958 41.098C55.6827 41.098 53.6431 40.7698 51.7254 40.1643ZM48.97 20.872C47.1706 24.2867 45.5148 28.4333 44.0475 32.7538C45.6343 34.5725 47.5658 36.0769 49.7421 37.1567C50.2121 31.9674 52.601 27.3314 56.186 23.977C54.0694 22.4541 51.6197 21.3743 48.97 20.872ZM39.5053 21.5993C39.6949 24.9908 40.7934 28.1422 42.5595 30.8064C43.9533 26.8269 45.3758 23.4249 46.8259 20.5971C46.4145 20.5693 46.0009 20.5496 45.5815 20.5496C43.4523 20.5496 41.4081 20.9219 39.5053 21.5993ZM57.7958 12.3295C55.0461 12.3295 52.4217 14.9578 50.0214 18.993C52.8859 19.6379 55.5241 20.8906 57.7958 22.6153C60.0663 20.8906 62.7068 19.6391 65.5702 18.993C63.1699 14.9578 60.5454 12.3295 57.7958 12.3295ZM51.7196 37.993C53.6225 38.6704 55.6666 39.0427 57.7958 39.0427C59.925 39.0427 61.968 38.6704 63.8719 37.993C63.5904 32.951 61.2992 28.4426 57.7958 25.2726C54.2912 28.4426 52.0012 32.951 51.7196 37.993ZM70.009 20.5484C69.5907 20.5484 69.1759 20.5681 68.7645 20.596C70.2146 23.4249 71.6383 26.8269 73.0309 30.8052C74.797 28.1422 75.8955 24.9908 76.0851 21.5981C74.1823 20.9207 72.1393 20.5484 70.009 20.5484ZM76.0805 19.428C75.5037 9.75111 67.5247 2.05531 57.7958 2.05531C48.0668 2.05531 40.0879 9.74995 39.5111 19.428C41.43 18.8214 43.4684 18.4943 45.5815 18.4943C46.3628 18.4943 47.1327 18.543 47.891 18.63C51.0808 13.0765 54.3935 10.2742 57.7958 10.2742C61.1992 10.2742 64.5108 13.0765 67.7005 18.63C68.4589 18.543 69.2288 18.4943 70.0101 18.4943C72.1232 18.4943 74.1627 18.8225 76.0805 19.428ZM37.5278 22.4367C31.4528 25.4512 27.26 31.761 27.26 39.0439C27.26 45.7352 30.799 51.6088 36.0892 54.8565C36.7625 51.545 38.7182 42.4841 41.6448 33.5124C41.6632 33.4561 41.6816 33.401 41.7 33.346C41.7184 33.2909 41.7367 33.2358 41.7551 33.1795C39.4157 30.158 37.8932 26.465 37.5278 22.4367ZM37.9622 55.8563C40.2844 56.9327 42.8628 57.5381 45.5815 57.5381C49.5319 57.5381 53.1904 56.2646 56.1871 54.1119C52.2482 50.4269 49.7559 45.1947 49.6617 39.3825C47.2728 38.3271 45.123 36.8238 43.3155 34.975C40.8221 42.7334 38.9515 50.7389 37.9622 55.8563ZM65.9299 39.3802C65.8356 45.1924 63.3422 50.4246 59.4044 54.1095C62.4 56.2646 66.0585 57.5381 70.0101 57.5358C72.7287 57.5358 75.3083 56.9304 77.6306 55.854C76.6401 50.7366 74.7694 42.7311 72.2772 34.9727C70.4697 36.8215 68.3187 38.3247 65.9299 39.3802ZM73.9467 33.5124C76.8722 42.4841 78.829 51.545 79.5023 54.8565C84.7914 51.6088 88.3316 45.7352 88.3316 39.0439C88.3316 31.761 84.1387 25.4512 78.0626 22.4367C77.6972 26.465 76.1759 30.1592 73.8353 33.1795C73.8732 33.292 73.91 33.3999 73.9467 33.5124ZM107.899 82.0036C108.103 82.2379 108.351 82.4188 108.641 82.5464C108.932 82.674 109.25 82.7378 109.596 82.7366C110.21 82.7366 110.687 82.5684 111.029 82.2309C111.37 81.8922 111.598 81.4248 111.715 80.8251C111.763 80.5642 111.802 80.2301 111.833 79.823C111.863 79.417 111.879 79.0482 111.879 78.7176C111.879 78.2908 111.863 77.8883 111.833 77.509C111.802 77.1309 111.749 76.7922 111.674 76.4965C111.571 76.0975 111.43 75.7715 111.249 75.5198C111.069 75.2682 110.836 75.0826 110.553 74.9619C110.27 74.8413 109.965 74.781 109.637 74.781C109.33 74.781 109.032 74.8355 108.742 74.9457C108.452 75.0559 108.197 75.2229 107.979 75.4468C107.762 75.6706 107.586 75.9502 107.453 76.2842C107.319 76.6183 107.253 77.0057 107.253 77.4464V80.0712C107.253 80.4714 107.309 80.8344 107.422 81.1615C107.535 81.4886 107.694 81.7693 107.899 82.0036ZM107.254 83.182V87.7403H105.196V73.3138H107.141L107.192 74.6256C107.499 74.1303 107.903 73.7313 108.405 73.4321C108.907 73.1316 109.522 72.982 110.253 72.982C111.734 72.982 112.767 73.5678 113.354 74.7381C113.593 75.2276 113.761 75.7982 113.856 76.4489C113.952 77.0996 114 77.857 114 78.7176C114 79.4832 113.962 80.1489 113.887 80.7173C113.812 81.2856 113.695 81.7809 113.539 82.2007C113.342 82.7436 113.068 83.1971 112.72 83.559C112.372 83.9208 111.977 84.1737 111.533 84.3187C111.088 84.4637 110.652 84.5356 110.222 84.5356C109.697 84.5356 109.242 84.4718 108.856 84.3442C108.47 84.2166 108.147 84.0426 107.884 83.8223C107.621 83.6019 107.411 83.3885 107.254 83.182ZM97.3768 82.0036C97.5813 82.2379 97.8295 82.4188 98.1191 82.5464C98.4098 82.674 98.7292 82.7378 99.0739 82.7366C99.6887 82.7366 100.166 82.5684 100.507 82.2309C100.848 81.8922 101.077 81.4248 101.193 80.8251C101.241 80.5642 101.28 80.2301 101.311 79.823C101.342 79.417 101.357 79.0482 101.357 78.7176C101.357 78.2908 101.342 77.8883 101.311 77.509C101.28 77.1309 101.227 76.7922 101.153 76.4965C101.049 76.0975 100.908 75.7715 100.727 75.5198C100.546 75.2682 100.314 75.0826 100.031 74.9619C99.7484 74.8413 99.4428 74.781 99.1153 74.781C98.8085 74.781 98.5086 74.8355 98.219 74.9457C97.9295 75.0559 97.6755 75.2229 97.4572 75.4468C97.2389 75.6706 97.0631 75.9502 96.9298 76.2842C96.7977 76.6183 96.731 77.0057 96.731 77.4464V80.0712C96.731 80.4714 96.7862 80.8344 96.8999 81.1615C97.0137 81.4886 97.1711 81.7693 97.3768 82.0036ZM96.7322 83.182V87.7403H94.6742V73.3138H96.6184L96.6701 74.6256C96.9769 74.1303 97.3814 73.7313 97.8835 73.4321C98.3845 73.1316 99.0004 72.982 99.7312 72.982C101.211 72.982 102.245 73.5678 102.832 74.7381C103.071 75.2276 103.239 75.7982 103.335 76.4489C103.43 77.0996 103.478 77.857 103.478 78.7176C103.478 79.4832 103.44 80.1489 103.364 80.7173C103.29 81.2856 103.174 81.7809 103.016 82.2007C102.82 82.7436 102.546 83.1971 102.198 83.559C101.85 83.9208 101.454 84.1737 101.01 84.3187C100.567 84.4637 100.131 84.5356 99.7002 84.5356C99.175 84.5356 98.72 84.4718 98.334 84.3442C97.949 84.2166 97.625 84.0426 97.3619 83.8223C97.0987 83.6019 96.8885 83.3885 96.7322 83.182ZM90.6124 82.8213C90.2447 83.3374 89.7954 83.7527 89.2669 84.0658C88.7371 84.379 88.0948 84.5356 87.3342 84.5356C86.9584 84.5356 86.5861 84.4822 86.2138 84.3755C85.8416 84.2688 85.5072 84.0879 85.2107 83.8327C84.9143 83.5787 84.6741 83.2388 84.4891 82.8155C84.3053 82.391 84.2134 81.8621 84.2134 81.2288V73.3138H86.2713V80.6604C86.2713 81.3297 86.4218 81.8203 86.7217 82.1335C87.0216 82.4466 87.4789 82.6032 88.0937 82.6032C88.5981 82.6032 89.0508 82.435 89.4495 82.0975C89.8483 81.76 90.1263 81.3726 90.2838 80.9353C90.4412 80.498 90.5193 80.0967 90.5193 79.7314V73.3149H92.5772V84.1957H90.6331L90.6124 82.8213ZM79.4552 79.1827V84.1946H77.3984V73.3138H79.3426L79.3633 75.608C79.6896 74.8773 80.1343 74.3089 80.6938 73.903C81.2534 73.497 81.8808 73.2929 82.5771 73.2929H82.8426V75.3911C82.7196 75.3633 82.5323 75.3493 82.2795 75.3493C81.5223 75.3493 80.9202 75.5744 80.4732 76.0255C80.0263 76.4767 79.7447 77.0022 79.6287 77.6018C79.5126 78.2015 79.4552 78.7281 79.4552 79.1827ZM69.516 79.8334V84.1946H67.458V69.4688H69.5148V77.3327L73.4146 73.3138H75.861L72.4414 76.827L76.0965 84.1946H73.7628L70.9385 78.3766L69.516 79.8334ZM58.7609 77.777V84.1946H56.703V73.3138H58.6483L58.669 74.6882C59.0378 74.1721 59.4883 73.7591 60.0203 73.4483C60.5534 73.1386 61.2015 72.9832 61.9656 72.9832C62.5999 72.9832 63.1537 73.1143 63.6283 73.3752C64.1028 73.6374 64.4544 74.0271 64.6831 74.5432C64.9106 75.0605 65.0255 75.6393 65.0255 76.2796V84.1946H62.9676V76.827C62.9676 76.1647 62.8274 75.6764 62.5481 75.3598C62.2678 75.0431 61.8208 74.8842 61.2072 74.8842C60.6879 74.8842 60.2305 75.0501 59.8353 75.3807C59.4388 75.7112 59.1619 76.0998 59.0011 76.5475C58.8413 76.9964 58.7609 77.4058 58.7609 77.777ZM48.7803 75.3134C48.5827 75.557 48.4241 75.8887 48.3046 76.3051C48.1851 76.7226 48.1185 77.2434 48.1058 77.8709H52.5687C52.5687 76.9883 52.4641 76.2993 52.2562 75.804C52.0482 75.3087 51.7713 74.9921 51.4266 74.8541C51.0819 74.716 50.736 74.6476 50.3878 74.6476C50.0604 74.6476 49.7593 74.6975 49.487 74.7972C49.2135 74.897 48.978 75.0698 48.7803 75.3134ZM53.5144 83.5694C53.1501 83.8965 52.702 84.1401 52.1734 84.2978C51.6449 84.4567 51.0761 84.5356 50.4683 84.5367C49.4031 84.5367 48.5448 84.3245 47.8933 83.9011C47.2418 83.4778 46.7729 82.8897 46.4857 82.1393C46.3156 81.7055 46.1961 81.2322 46.1272 80.7184C46.0594 80.2058 46.0249 79.6281 46.0249 78.9879C46.0249 78.1539 46.0801 77.4046 46.1892 76.74C46.2984 76.0754 46.457 75.5349 46.6649 75.1174C46.8729 74.701 47.1062 74.3623 47.3658 74.1002C47.714 73.7348 48.1449 73.4576 48.6562 73.2674C49.1675 73.0783 49.7926 72.9832 50.5292 72.9832C51.2117 72.9832 51.7851 73.0748 52.2493 73.2569C52.7135 73.4402 53.0984 73.6861 53.4064 73.9958C53.7476 74.3542 54.005 74.7659 54.1785 75.231C54.3532 75.695 54.4646 76.196 54.5117 76.7342C54.5589 77.2724 54.583 77.7851 54.583 78.2746V79.4112H48.0829V79.7105C48.0829 80.2962 48.1449 80.7845 48.2678 81.1777C48.3908 81.5709 48.5643 81.8841 48.7895 82.1184C49.0159 82.3527 49.2825 82.5186 49.5938 82.6148C49.9041 82.7111 50.2465 82.7598 50.6222 82.7598C51.0256 82.7598 51.3852 82.6856 51.7023 82.5371C52.0195 82.3886 52.2642 82.2147 52.4343 82.0152C52.6043 81.8157 52.7342 81.6394 52.8227 81.4886L54.4508 82.3353C54.1912 82.8306 53.8786 83.2423 53.5144 83.5694ZM42.5307 84.1435C42.2607 84.2607 41.9504 84.3558 41.5988 84.4277C41.2483 84.4996 40.8634 84.5356 40.4429 84.5344C39.8281 84.5344 39.3088 84.4706 38.8813 84.343C38.455 84.2155 38.0678 84.045 37.7196 83.8315C37.3853 83.6193 37.0992 83.3629 36.8602 83.0672C36.6212 82.7714 36.4338 82.4408 36.2971 82.0755L37.9966 81.3111C38.1057 81.5245 38.2321 81.7206 38.3757 81.9003C38.5194 82.079 38.686 82.2367 38.8779 82.3701C39.0698 82.5035 39.2846 82.609 39.5236 82.6844C39.7615 82.7598 40.035 82.7981 40.3418 82.7981C40.6221 82.7981 40.8841 82.776 41.13 82.7308C41.3759 82.6867 41.5908 82.6125 41.7746 82.5093C41.9585 82.406 42.1055 82.2692 42.2147 82.101C42.325 81.9328 42.379 81.7275 42.379 81.4863C42.379 81.1348 42.2928 80.8541 42.1228 80.6442C41.9516 80.4342 41.7217 80.2672 41.431 80.1431C41.1403 80.019 40.8554 79.9019 40.5762 79.7917L38.9997 79.2036C38.5561 79.032 38.1873 78.8371 37.8943 78.6202C37.6013 78.4033 37.3761 78.1945 37.2198 77.995C37.021 77.7399 36.882 77.4603 36.7993 77.1529C36.7177 76.8467 36.6763 76.5556 36.6763 76.2796C36.6763 76.0395 36.7062 75.7739 36.7636 75.4839C36.8211 75.1951 36.9256 74.9155 37.0762 74.6476C37.2462 74.3101 37.4967 74.0143 37.8276 73.7591C38.1586 73.504 38.5688 73.3114 39.0571 73.1804C39.5455 73.0505 40.051 72.9844 40.5773 72.9844C41.5126 72.9844 42.3009 73.1618 42.942 73.5167C43.5844 73.8717 44.052 74.4098 44.345 75.1336L42.6961 75.9397C42.4996 75.485 42.2262 75.1487 41.878 74.9318C41.5299 74.7149 41.1024 74.6059 40.598 74.6059C40.2567 74.6059 39.9603 74.6372 39.7075 74.6998C39.4547 74.7613 39.2398 74.8715 39.0629 75.0304C38.7687 75.2716 38.6228 75.6254 38.6228 76.094C38.6228 76.3213 38.6848 76.5231 38.8066 76.6983C38.9296 76.8734 39.1123 77.0358 39.3547 77.1843C39.5972 77.3327 39.8925 77.4719 40.2406 77.603C40.5888 77.7329 40.9875 77.864 41.4379 77.995C42.3319 78.2711 42.9328 78.5344 43.2396 78.7861C43.5464 79.0378 43.782 79.2871 43.9463 79.5353C44.0624 79.7279 44.1646 79.9657 44.2542 80.2487C44.3427 80.5305 44.3875 80.8715 44.3875 81.2705C44.3875 81.7472 44.3232 82.1416 44.1933 82.4548C44.0646 82.7691 43.8934 83.0591 43.682 83.3281C43.5729 83.472 43.4212 83.6158 43.227 83.7561C43.0328 83.8976 42.8007 84.0264 42.5307 84.1435ZM33.3165 84.1435C33.0465 84.2607 32.7362 84.3558 32.3846 84.4277C32.033 84.4996 31.6492 84.5356 31.2321 84.5344C30.6185 84.5344 30.098 84.4706 29.6717 84.343C29.2454 84.2155 28.8582 84.045 28.5101 83.8315C28.1757 83.6193 27.8884 83.3629 27.6494 83.0672C27.4104 82.7714 27.2231 82.4408 27.0864 82.0755L28.7858 81.3111C28.895 81.5245 29.0214 81.7206 29.165 81.9003C29.3086 82.079 29.4753 82.2355 29.6671 82.3701C29.8579 82.5035 30.0728 82.609 30.3118 82.6844C30.5508 82.7598 30.8231 82.7981 31.131 82.7981C31.4114 82.7981 31.6745 82.776 31.9193 82.7308C32.1652 82.6867 32.3812 82.6125 32.565 82.5093C32.7489 82.406 32.896 82.2692 33.0051 82.101C33.1143 81.9328 33.1694 81.7275 33.1694 81.4863C33.1694 81.1348 33.0832 80.8541 32.9132 80.6442C32.742 80.4342 32.5122 80.2672 32.2215 80.1431C31.9308 80.019 31.6458 79.9019 31.3666 79.7917L29.7889 79.2036C29.3454 79.032 28.9766 78.8371 28.6836 78.6202C28.3906 78.4033 28.1653 78.1945 28.0079 77.995C27.8103 77.7399 27.6701 77.4603 27.5885 77.1529C27.5069 76.8467 27.4656 76.5556 27.4656 76.2796C27.4656 76.0395 27.4954 75.7739 27.5529 75.4839C27.6104 75.1951 27.7149 74.9155 27.8643 74.6476C28.0355 74.3101 28.2848 74.0143 28.6169 73.7591C28.9478 73.504 29.3569 73.3103 29.8452 73.1804C30.3336 73.0505 30.8392 72.9844 31.3654 72.9844C32.3007 72.9844 33.089 73.1618 33.7302 73.5167C34.3713 73.8717 34.839 74.4098 35.132 75.1336L33.4843 75.9397C33.2866 75.485 33.0132 75.1487 32.665 74.9318C32.318 74.7149 31.8905 74.6059 31.3861 74.6059C31.046 74.6059 30.7484 74.6372 30.4956 74.6998C30.2428 74.7613 30.0291 74.8715 29.851 75.0304C29.5568 75.2716 29.4109 75.6254 29.4109 76.094C29.4109 76.3213 29.4718 76.5231 29.5948 76.6983C29.7177 76.8734 29.9004 77.0358 30.1428 77.1843C30.3853 77.3327 30.6806 77.4719 31.0288 77.603C31.3769 77.7329 31.7756 77.864 32.2261 77.995C33.12 78.2711 33.7198 78.5344 34.0278 78.7861C34.3357 79.0378 34.5701 79.2871 34.7344 79.5353C34.8505 79.7279 34.9527 79.9657 35.0412 80.2487C35.1297 80.5305 35.1745 80.8715 35.1745 81.2705C35.1745 81.7472 35.1102 82.1416 34.9803 82.4548C34.8505 82.7691 34.6804 83.0591 34.4678 83.3281C34.3587 83.472 34.207 83.6158 34.0128 83.7561C33.8186 83.8976 33.5865 84.0264 33.3165 84.1435ZM20.9746 87.0363C20.6069 87.4562 20.2278 87.7218 19.8394 87.832C19.4498 87.9421 19.0787 87.9978 18.7237 87.9967C18.4226 87.9967 18.1813 87.9816 17.9963 87.9549V86.1153C18.1468 86.1432 18.3077 86.1571 18.4778 86.1571C18.9558 86.1571 19.3223 86.0133 19.5785 85.7233C19.8348 85.4345 20.0336 85.1004 20.1772 84.7212L20.6575 83.6877L16.9415 73.3138H19.0396L21.7215 80.8472L24.5367 73.3138H26.5843L21.9984 85.1654C21.6847 85.9924 21.3435 86.6164 20.9746 87.0363ZM9.60945 77.777V84.1946H7.55496V69.4688H9.61175V74.5641C9.98059 74.0746 10.4218 73.6896 10.9377 73.4065C11.4525 73.1247 12.0787 72.9832 12.8153 72.9832C13.4507 72.9832 14.0045 73.1143 14.4791 73.3752C14.9525 73.6374 15.3041 74.0271 15.5328 74.5432C15.7614 75.0605 15.8752 75.6393 15.8752 76.2796V84.1946H13.8184V76.827C13.8184 76.1647 13.6782 75.6764 13.3978 75.3598C13.1175 75.0431 12.6716 74.8842 12.0569 74.8842C11.5387 74.8842 11.0814 75.0501 10.6849 75.3807C10.2885 75.7112 10.0105 76.0998 9.85074 76.5475C9.68988 76.9964 9.60945 77.4058 9.60945 77.777ZM5.77394 82.4791V84.1946C5.42578 84.2363 5.05349 84.2572 4.65822 84.2572C3.99522 84.2572 3.45288 84.1691 3.03003 83.9928C2.60718 83.8165 2.27396 83.5694 2.03266 83.2493C1.79021 82.928 1.62245 82.5394 1.53053 82.0813C1.4386 81.6231 1.39264 81.1151 1.39264 80.5572V74.9457H0V73.3138H1.39264V69.4699H3.44023V73.3138H5.66133V74.9457H3.44023V80.5363C3.44023 80.868 3.45977 81.1569 3.50113 81.4051C3.5425 81.6533 3.62063 81.8597 3.73669 82.0256C3.85274 82.1903 4.01131 82.3144 4.21239 82.3968C4.41462 82.4791 4.67546 82.5209 4.99604 82.5209C5.25457 82.5209 5.51426 82.5058 5.77394 82.4791Z" fill="#48545D"/>
</svg>
