<svg width="100" height="88" viewBox="0 0 100 88" fill="none" xmlns="http://www.w3.org/2000/svg">
<rect y="16" width="100" height="56" fill="transparent"/>
<path fill-rule="evenodd" clip-rule="evenodd" d="M64.4555 28.0205C60.2559 28.2094 56.7633 29.5368 54.4542 31.8215C52.7999 33.4583 51.8929 35.4311 51.7365 37.7331C51.5461 40.5344 52.8233 42.8576 55.6541 44.8594C56.5329 45.4808 57.2924 45.9176 58.7961 46.6663C60.0851 47.3082 60.5136 47.5429 61.1335 47.947C61.9332 48.4683 62.4179 48.9231 62.6968 49.4142C63.0865 50.1 63.0734 50.9869 62.6634 51.6753C62.0849 52.6467 60.7743 53.2936 58.9588 53.504C58.6037 53.5451 56.9305 53.5448 56.4336 53.5035C54.2492 53.3218 52.5735 52.8592 50.3374 51.8208C50.1098 51.7151 49.9056 51.6254 49.8837 51.6216C49.8413 51.6141 49.8388 51.624 49.5694 52.8788C49.5091 53.1596 49.4041 53.6465 49.336 53.9607C49.2679 54.2749 49.1689 54.7345 49.116 54.9818C49.0631 55.2292 48.9926 55.5574 48.9593 55.7112C48.9261 55.865 48.8589 56.1768 48.81 56.4041C48.7611 56.6315 48.6715 57.0472 48.6108 57.328C48.5501 57.6089 48.4781 57.9425 48.4506 58.0696C48.4232 58.1966 48.3958 58.3181 48.3898 58.3396C48.3713 58.406 49.2227 58.7366 50.0348 58.9783C51.7309 59.483 53.6827 59.8141 55.882 59.9701C56.4407 60.0097 58.4621 60.01 58.9834 59.9706C61.6507 59.7688 63.7815 59.2354 65.6756 58.2955C66.1693 58.0505 66.3728 57.9366 66.8204 57.6544C69.0113 56.2738 70.5038 54.2971 71.1071 51.9772C71.3207 51.1556 71.3995 50.5571 71.4172 49.6208C71.4319 48.8428 71.4027 48.4362 71.2917 47.8733C70.965 46.2162 70.0584 44.7545 68.5712 43.487C67.5702 42.6338 66.4941 41.961 64.2667 40.7955C62.7779 40.0165 62.2864 39.7414 61.7537 39.389C60.8903 38.8178 60.4194 38.3161 60.2095 37.744C60.1283 37.5227 60.0997 37.1209 60.1462 36.8559C60.219 36.4415 60.4638 36.0189 60.8328 35.6706C61.1045 35.4143 61.3398 35.2575 61.7537 35.0573C62.8392 34.5323 64.4287 34.3569 66.3774 34.5472C67.9892 34.7045 69.5882 35.1174 71.1501 35.7794C71.3425 35.861 71.504 35.9234 71.509 35.918C71.514 35.9127 71.5518 35.7497 71.5929 35.5558C71.7414 34.8561 72.825 29.8491 72.8757 29.6281C72.9063 29.495 72.9187 29.3927 72.9058 29.3799C72.8938 29.368 72.7267 29.3038 72.5345 29.2373C69.854 28.3102 67.1314 27.9001 64.4555 28.0205ZM0.182785 28.6089C0.16582 28.6531 0.0149943 29.3384 6.3776e-05 29.4391C-0.00175044 29.4514 0.0353675 29.4703 0.0825617 29.4811C0.129756 29.4919 0.317307 29.5346 0.499341 29.5759C0.681376 29.6172 1.07303 29.7115 1.36968 29.7855C1.66632 29.8595 1.95317 29.9305 2.0071 29.9433C2.39851 30.0363 3.84427 30.464 4.54456 30.694C6.05404 31.1898 7.50923 31.809 8.2792 32.2832C9.06191 32.7652 9.4073 33.2388 9.72623 34.2672C9.77392 34.421 9.91945 34.9571 10.0497 35.4586C10.1799 35.96 10.3452 36.5946 10.417 36.8687C10.7045 37.9658 10.8481 38.5159 11.0164 39.1663C11.1133 39.5407 11.2402 40.0276 11.2983 40.2482C11.4083 40.6655 11.6535 41.6061 11.8435 42.3391C11.9041 42.5731 12.0012 42.9451 12.0592 43.1658C12.1173 43.3864 12.2431 43.8678 12.3388 44.2355C12.6168 45.3036 13.0628 47.0153 13.2384 47.688C13.3274 48.029 13.4472 48.4885 13.5046 48.7091C13.669 49.3412 13.9542 50.4339 14.0693 50.873C14.1271 51.0936 14.2484 51.5586 14.3389 51.9063C14.4294 52.2539 14.5562 52.7408 14.6208 52.9882C14.6854 53.2356 14.8123 53.7224 14.9028 54.0701C14.9933 54.4178 15.1204 54.9046 15.1851 55.152C15.2499 55.3994 15.3768 55.8863 15.4671 56.234C15.5574 56.5816 15.6799 57.0521 15.7394 57.2794C16.0474 58.4572 16.1663 58.9135 16.2417 59.2062L16.3247 59.5283L20.5971 59.5283L24.8695 59.5284L24.9053 59.4493C24.9421 59.3681 25.175 58.8178 25.2732 58.5802C25.3626 58.3638 25.7236 57.5098 25.787 57.3645C25.8192 57.291 26.3164 56.1148 26.892 54.7509C27.8958 52.3725 28.2236 51.5968 28.3254 51.3592C28.4598 51.0453 28.5948 50.7259 29.5022 48.5754C30.0438 47.2917 30.513 46.1812 30.5449 46.1076C30.5767 46.0341 30.681 45.7879 30.7765 45.5606C30.8719 45.3333 30.9715 45.098 30.9977 45.0379C31.0737 44.8634 31.2655 44.4108 31.3532 44.1991C31.3975 44.0921 31.9106 42.8777 32.4935 41.5003C33.0764 40.123 33.5784 38.9359 33.6091 38.8624C33.6398 38.7888 33.7391 38.5536 33.8297 38.3397C33.9203 38.1257 34.0194 37.8905 34.05 37.8169C34.0806 37.7434 34.6102 36.4907 35.2269 35.0331C36.457 32.1255 36.6392 31.6943 36.722 31.4956C36.7766 31.3644 36.9495 30.9566 37.1653 30.4501C37.7085 29.1749 37.9519 28.5873 37.9433 28.5719C37.9377 28.5619 36.0375 28.5537 33.7207 28.5537C30.3709 28.5537 29.5031 28.56 29.4828 28.5842C29.4687 28.601 29.3505 28.8828 29.2201 29.2103C28.8793 30.0661 28.6655 30.6022 28.3182 31.4713C28.1499 31.8925 27.9292 32.445 27.8278 32.6991C27.7264 32.9531 27.5255 33.4564 27.3813 33.8175C27.0981 34.5267 26.7938 35.2904 26.5482 35.9084C26.4632 36.1223 26.2646 36.6201 26.107 37.0146C25.9493 37.4091 25.7374 37.9397 25.636 38.1938C25.5346 38.4479 25.3139 39.0004 25.1455 39.4216C24.9771 39.8428 24.7698 40.3625 24.6848 40.5764C24.5998 40.7904 24.4123 41.2609 24.268 41.6219C24.0253 42.2294 23.8231 42.7363 23.361 43.8952C23.2623 44.1425 23.0439 44.6896 22.8756 45.1108C22.4062 46.2854 22.2092 46.779 21.9877 47.3354C21.0028 49.8091 21.0841 49.6085 21.067 49.6086C21.0594 49.6086 21.0334 49.502 21.0093 49.3716C20.9851 49.2413 20.9122 48.8556 20.8471 48.5146C20.7821 48.1736 20.6501 47.4789 20.5539 46.9707C20.4576 46.4626 20.3362 45.8226 20.2841 45.5484C20.232 45.2743 20.1272 44.7218 20.0514 44.3206C19.9755 43.9195 19.8924 43.4818 19.8666 43.3481C19.7821 42.9087 19.6276 42.0952 19.4995 41.4152C19.4302 41.0475 19.3089 40.4075 19.2299 39.9929C19.0935 39.277 18.9274 38.4021 18.7129 37.2699C18.6597 36.9891 18.5949 36.6499 18.569 36.5162C18.543 36.3825 18.4653 35.9722 18.3962 35.6045C18.327 35.2367 18.2277 34.7116 18.1754 34.4374C18.1231 34.1633 17.9966 33.4959 17.8943 32.9543C17.5841 31.3127 17.5417 31.1527 17.2806 30.6325C16.7276 29.531 15.7779 28.8333 14.525 28.608C14.3383 28.5745 13.5142 28.5692 7.25941 28.5613L0.204458 28.5524L0.182785 28.6089ZM41.4303 28.5841C41.4248 28.6008 41.4034 28.6966 41.3828 28.7968C41.3622 28.8971 41.2895 29.2363 41.2213 29.5505C41.0536 30.3233 40.9139 30.9726 40.6958 31.994C40.6472 32.2213 40.5973 32.4511 40.5848 32.5046C40.5724 32.558 40.5227 32.7878 40.4745 33.0151C40.4263 33.2425 40.3767 33.4722 40.3642 33.5257C40.3517 33.5792 40.3021 33.8089 40.2539 34.0363C40.2057 34.2636 40.156 34.4934 40.1435 34.5468C40.1311 34.6003 40.0821 34.8246 40.0347 35.0453C39.7366 36.4336 39.3271 38.3303 39.3078 38.4126C39.2952 38.4661 39.18 39.0022 39.0517 39.6039C38.9234 40.2057 38.8074 40.7439 38.794 40.8C38.7805 40.8561 38.7257 41.1078 38.6721 41.3592C38.6186 41.6107 38.519 42.0735 38.4508 42.3878C38.3827 42.702 38.2831 43.1648 38.2295 43.4163C38.176 43.6678 38.1211 43.9194 38.1077 43.9755C38.0942 44.0316 37.8787 45.0294 37.6287 46.1927C37.3786 47.3561 37.1253 48.5322 37.0657 48.8064C37.0062 49.0805 36.9177 49.4908 36.8691 49.7181C36.8205 49.9454 36.7706 50.1752 36.7581 50.2287C36.7456 50.2822 36.696 50.5119 36.6478 50.7392C36.5996 50.9666 36.5499 51.1963 36.5375 51.2498C36.525 51.3033 36.4753 51.5331 36.4271 51.7604C36.3789 51.9877 36.3293 52.2175 36.3168 52.271C36.3043 52.3244 36.2544 52.5542 36.2059 52.7815C35.9925 53.7806 35.8526 54.4312 35.6805 55.225C35.5413 55.8667 35.4103 56.475 35.2644 57.1578C35.2101 57.4119 35.1492 57.6909 35.1291 57.7778C35.109 57.8647 35.0201 58.275 34.9317 58.6896C34.8432 59.1041 34.7652 59.4624 34.7582 59.4858C34.7462 59.5262 34.9496 59.5284 38.7892 59.5284H42.8328L42.847 59.4493C42.8548 59.4059 42.9008 59.1898 42.9492 58.9692C42.9975 58.7485 43.0523 58.4969 43.0708 58.41C43.2266 57.6811 43.2866 57.4033 43.3176 57.2673C43.3375 57.1803 43.5911 56.0042 43.8811 54.6536C44.1711 53.303 44.4194 52.1521 44.4329 52.096C44.4463 52.0399 44.5012 51.7883 44.5548 51.5368C44.6083 51.2854 44.7079 50.8225 44.7761 50.5083C44.8442 50.194 44.9433 49.7345 44.9962 49.4871C45.0491 49.2397 45.1196 48.9115 45.1529 48.7577C45.1861 48.604 45.253 48.2921 45.3015 48.0648C45.35 47.8375 45.3999 47.6077 45.4124 47.5543C45.4249 47.5008 45.4739 47.2765 45.5212 47.0558C46.1165 44.2842 46.5215 42.405 46.5413 42.3222C46.5548 42.2661 46.6096 42.0145 46.6632 41.763C46.7167 41.5116 46.8163 41.0487 46.8845 40.7345C46.9526 40.4202 47.0517 39.9607 47.1046 39.7133C47.1575 39.466 47.2281 39.1377 47.2613 38.984C47.2945 38.8302 47.3614 38.5184 47.4099 38.291C47.4584 38.0637 47.5084 37.834 47.5208 37.7805C47.5333 37.727 47.5833 37.4972 47.6318 37.2699C47.6804 37.0426 47.7689 36.6323 47.8285 36.3582C47.888 36.084 48.0421 35.3674 48.1707 34.7657C48.2994 34.1639 48.4156 33.6257 48.4291 33.5696C48.4426 33.5135 48.4974 33.2618 48.5509 33.0104C48.6045 32.7589 48.7041 32.2961 48.7722 31.9818C48.8404 31.6676 48.9397 31.2081 48.9929 30.9607C49.0461 30.7133 49.1511 30.2264 49.2263 29.8788C49.3014 29.5311 49.373 29.1974 49.3853 29.1372C49.3975 29.077 49.4295 28.93 49.4563 28.8105C49.483 28.691 49.4994 28.5843 49.4926 28.5734C49.4859 28.5626 47.6713 28.5537 45.4603 28.5537C42.266 28.5537 41.4382 28.56 41.4303 28.5841ZM85.9147 28.627C84.794 28.8232 83.8518 29.5058 83.2974 30.5231C83.2428 30.6233 82.4338 32.5161 81.4998 34.7292C80.5657 36.9423 79.7691 38.8296 79.7294 38.9232C79.6897 39.0168 79.6321 39.1535 79.6014 39.2271C79.5706 39.3006 79.4991 39.4702 79.4423 39.6039C79.3856 39.7376 79.314 39.9072 79.2832 39.9808C79.2524 40.0543 79.1643 40.2622 79.0875 40.4427C79.0106 40.6232 78.9113 40.8585 78.8668 40.9655C78.8223 41.0724 77.9835 43.0582 77.0028 45.3782C76.0221 47.6983 75.1947 49.6567 75.1641 49.7303C75.1335 49.8038 75.0344 50.039 74.9438 50.253C74.8532 50.4669 74.7538 50.7022 74.7229 50.7757C74.6921 50.8493 74.5928 51.0845 74.5024 51.2984C74.412 51.5124 74.3081 51.7586 74.2714 51.8455C74.2347 51.9324 73.4952 53.6829 72.6282 55.7355C71.7611 57.7882 71.0463 59.4813 71.0398 59.498C71.0304 59.5222 71.8855 59.5284 75.2658 59.5284L79.5036 59.5283L80.1019 57.8812C80.431 56.9752 80.7254 56.1683 80.7563 56.0881C80.7871 56.0078 80.8974 55.7097 81.0014 55.4256L81.1903 54.9089H86.3714H91.5525L91.5655 54.9636C91.5726 54.9937 91.6672 55.4395 91.7758 55.9544C91.8844 56.4692 92.0117 57.0709 92.0586 57.2916C92.1055 57.5122 92.1539 57.742 92.1663 57.8021C92.1786 57.8623 92.2226 58.0702 92.264 58.2641C92.3054 58.458 92.3609 58.7206 92.3873 58.8476C92.4694 59.2432 92.5298 59.5078 92.5404 59.5184C92.546 59.524 94.2268 59.5257 96.2753 59.5224L100 59.5162L99.1859 55.6504C98.3879 51.8612 98.2908 51.4006 98.1971 50.9581C98.1167 50.5788 98.0242 50.1393 97.9768 49.9126C97.9517 49.7923 97.902 49.557 97.8665 49.3899C97.8309 49.2227 97.7812 48.9875 97.7561 48.8671C97.688 48.5408 97.5883 48.0688 97.5353 47.8217C97.5095 47.7013 97.0351 45.4475 96.4811 42.8132C95.9272 40.1789 95.4461 37.8923 95.4119 37.7318C95.3779 37.5714 95.329 37.3416 95.3034 37.2213C95.2603 37.0189 95.2041 36.7514 95.0813 36.1637C95.0547 36.0366 95.0121 35.8342 94.9866 35.7139C94.9612 35.5935 94.9127 35.3638 94.8789 35.2033C94.845 35.0428 94.7677 34.6763 94.707 34.3888C94.1336 31.6727 93.4903 28.6099 93.4903 28.5957C93.4903 28.586 91.8437 28.5789 89.8312 28.58C86.3826 28.5818 86.1573 28.5845 85.9147 28.627ZM88.0851 38.426C88.255 39.2343 88.4435 40.1309 88.5041 40.4184C88.5648 40.7059 88.635 41.0396 88.6603 41.16C88.7419 41.5486 88.8968 42.2824 88.9888 42.716C89.4082 44.6939 90.2051 48.5019 90.2051 48.5286C90.2051 48.5584 89.7369 48.5632 86.8559 48.5632C83.6763 48.5632 83.5077 48.5611 83.5234 48.5207C83.5469 48.4606 84.9823 44.5404 86.2453 41.087C87.5271 37.5824 87.7627 36.9428 87.7694 36.9494C87.7732 36.9532 87.9153 37.6176 88.0851 38.426Z" fill="#48545D"/>
</svg>
